<?xml version="1.0" encoding="iso-8859-1"?>
<!-- Generator: Adobe Illustrator 19.0.0, SVG Export Plug-In . SVG Version: 6.00 Build 0)  -->
<svg version="1.1" id="Capa_1" xmlns="http://www.w3.org/2000/svg" xmlns:xlink="http://www.w3.org/1999/xlink" x="0px" y="0px"
	 viewBox="0 0 469.334 469.334" style="enable-background:new 0 0 469.334 469.334;" xml:space="preserve">
<g>
	<path style="fill:#ffffff;" d="M447.939,362.609V330.61c0-5.896-4.769-10.666-10.664-10.666c-5.894,0-10.664,4.771-10.664,10.666
		v0.318c-19.222-29.8-40.134-56.494-51.589-70.534c-3.718-4.573-10.435-5.281-14.996-1.521c-4.572,3.719-5.249,10.437-1.52,14.999
		c20.808,25.509,37.255,48.139,50.085,67.948c-5.635-1.807-11.572,1.186-13.418,6.747c-1.864,5.594,1.156,11.635,6.738,13.489
		l23.57,7.859c23.487,42.729,26.06,67.448,18.97,74.533c-7.56,7.552-35.323,4.937-88.631-27.218
		c-32.307-19.486-68.282-46.39-105.052-78.252c15.099-13.653,30.235-28.03,45.225-43.024
		c53.459-53.472,99.191-108.744,130.619-157.457v0.12c0,5.896,4.769,10.666,10.664,10.666c5.894,0,10.664-4.771,10.664-10.666
		v-31.999c0-1-0.415-1.896-0.682-2.835c24.497-46.124,28.636-77.73,12.272-94.089c-31.72-31.717-115.592,21.676-162.766,56.331
		c-4.749,3.479-5.769,10.156-2.281,14.906c3.468,4.729,10.143,5.75,14.902,2.281c76.634-56.279,123.766-69.758,135.065-58.435
		c6.855,6.856,5.113,30.534-19.215,74.616l-23.325,7.777c-5.582,1.854-8.602,7.896-6.738,13.489
		c1.822,5.489,7.632,8.457,13.201,6.774c-30.588,47.329-75.208,101.164-127.459,153.438c-15.346,15.347-30.827,29.986-46.247,43.875
		c-15.42-13.889-30.901-28.527-46.247-43.875C136.168,228.598,91.548,174.763,60.96,127.434c5.569,1.682,11.378-1.285,13.201-6.774
		c1.864-5.594-1.156-11.635-6.738-13.489l-23.325-7.777C19.77,55.312,18.029,31.635,24.884,24.778
		c11.33-11.333,58.473,2.167,135.169,58.519c4.728,3.479,11.424,2.458,14.902-2.281c3.489-4.739,2.468-11.416-2.281-14.906
		C125.48,31.403,41.504-22.053,9.805,9.696C-6.559,26.054-2.42,57.66,22.077,103.784c-0.267,0.939-0.682,1.835-0.682,2.835v31.999
		c0,5.896,4.769,10.666,10.664,10.666s10.664-4.771,10.664-10.666v-0.12c31.427,48.713,77.16,103.985,130.619,157.457
		c14.99,14.994,30.127,29.371,45.225,43.024c-36.769,31.862-72.745,58.766-105.052,78.252
		c-53.36,32.176-81.112,34.728-88.631,27.218c-7.085-7.087-4.513-31.809,18.975-74.536l23.565-7.856
		c5.582-1.854,8.602-7.896,6.738-13.489c-1.846-5.557-7.778-8.55-13.409-6.748c12.774-19.721,29.123-42.231,49.805-67.603
		c3.718-4.562,3.03-11.281-1.531-15.01c-4.551-3.708-11.268-3-15.006,1.531c-11.394,13.98-32.172,40.523-51.298,70.177v-0.305
		c0-5.896-4.769-10.666-10.664-10.666s-10.664,4.771-10.664,10.666v31.999c0,1.146,0.433,2.186,0.782,3.247
		C2.181,403.679-8.941,440.791,9.805,459.532c6.54,6.541,15.506,9.802,26.867,9.802c21.119,0,50.506-11.302,87.86-33.832
		c33.921-20.469,71.685-48.817,110.135-82.299c38.45,33.482,76.214,61.83,110.135,82.299c37.354,22.541,66.741,33.842,87.871,33.832
		c11.351,0,20.317-3.26,26.857-9.802c18.745-18.74,7.635-55.838-12.373-93.673C447.505,364.796,447.939,363.755,447.939,362.609z"/>
	<path style="fill:#ffffff;" d="M128,138.667c0,5.896,4.771,10.667,10.667,10.667c5.896,0,10.667-4.771,10.667-10.667
		c0-5.885,4.781-10.667,10.667-10.667c5.885,0,10.667,4.781,10.667,10.667c0,5.885-4.781,10.667-10.667,10.667
		c-5.896,0-10.667,4.771-10.667,10.667c0,5.896,4.771,10.667,10.667,10.667c5.885,0,10.667,4.781,10.667,10.667
		c0,5.885-4.781,10.667-10.667,10.667c-5.885,0-10.667-4.781-10.667-10.667c0-5.896-4.771-10.667-10.667-10.667
		c-5.896,0-10.667,4.771-10.667,10.667c0,17.646,14.354,32,32,32s32-14.354,32-32c0-8.188-3.094-15.667-8.167-21.333
		c5.073-5.667,8.167-13.146,8.167-21.333c0-17.646-14.354-32-32-32S128,121.021,128,138.667z"/>
	<path style="fill:#ffffff;" d="M309.334,213.334c17.646,0,32-14.354,32-32v-42.667c0-17.646-14.354-32-32-32s-32,14.354-32,32
		v42.667C277.334,198.979,291.688,213.334,309.334,213.334z M298.667,138.667c0-5.885,4.781-10.667,10.667-10.667
		S320,132.782,320,138.667v42.667c0,5.885-4.781,10.667-10.667,10.667s-10.667-4.781-10.667-10.667V138.667z"/>
	<path style="fill:#ffffff;" d="M234.667,213.334c17.646,0,32-14.354,32-32s-14.354-32-32-32c-3.277,0-6.379,0.639-9.358,1.559
		C227.719,141.185,234.784,128,256,128c5.896,0,10.667-4.771,10.667-10.667s-4.771-10.667-10.667-10.667
		c-42.187,0-53.333,34.885-53.333,53.333v21.333C202.667,198.979,217.021,213.334,234.667,213.334z M234.667,170.667
		c5.885,0,10.667,4.781,10.667,10.667c0,5.885-4.781,10.667-10.667,10.667c-5.885,0-10.667-4.781-10.667-10.667
		C224,175.448,228.782,170.667,234.667,170.667z"/>
	<path style="fill:#ffffff;" d="M384,106.667c0-11.76-9.573-21.333-21.333-21.333c-11.76,0-21.333,9.573-21.333,21.333
		S350.907,128,362.667,128C374.427,128,384,118.427,384,106.667z"/>
</g>
<linearGradient id="SVGID_1_" gradientUnits="userSpaceOnUse" x1="-68.8124" y1="619.111" x2="-43.2626" y2="607.196" gradientTransform="matrix(21.3333 0 0 -21.3333 1430.1055 13315.2285)">
	<stop  offset="0" style="stop-color:#ffffff;stop-opacity:0.2"/>
	<stop  offset="1" style="stop-color:#ffffff;stop-opacity:0"/>
</linearGradient>
<path style="fill:url(#SVGID_1_);" d="M447.939,362.608V330.61c0-5.896-4.77-10.667-10.664-10.667s-10.663,4.771-10.663,10.667
	v0.318c-19.223-29.799-40.135-56.493-51.59-70.534c-3.717-4.573-10.435-5.281-14.996-1.521c-4.572,3.719-5.249,10.438-1.52,15
	c20.807,25.509,37.254,48.138,50.085,67.948c-5.635-1.807-11.573,1.186-13.418,6.746c-1.865,5.594,1.155,11.635,6.737,13.49
	l23.57,7.859c23.487,42.728,26.06,67.448,18.97,74.534c-7.561,7.551-35.324,4.936-88.632-27.219
	c-32.307-19.486-68.283-46.389-105.052-78.251c15.099-13.654,30.236-28.03,45.225-43.025
	c53.46-53.471,99.193-108.745,130.62-157.457v0.12c0,5.896,4.768,10.667,10.663,10.667s10.664-4.771,10.664-10.667v-31.999
	c0-1-0.415-1.896-0.682-2.835c24.497-46.125,28.637-77.73,12.272-94.089c-31.72-31.717-115.591,21.676-162.766,56.331
	c-4.749,3.479-5.768,10.156-2.28,14.906c3.467,4.728,10.143,5.749,14.901,2.281c76.635-56.28,123.767-69.758,135.066-58.436
	c6.854,6.857,5.112,30.534-19.215,74.616l-23.326,7.777c-5.582,1.854-8.602,7.896-6.737,13.488c1.822,5.49,7.632,8.457,13.201,6.775
	c-30.589,47.329-75.208,101.164-127.46,153.439c-15.346,15.346-30.827,29.986-46.247,43.874
	c-15.421-13.888-30.901-28.527-46.247-43.874c-52.251-52.275-96.871-106.109-127.46-153.439c5.569,1.682,11.379-1.285,13.201-6.775
	c1.865-5.592-1.155-11.634-6.737-13.488l-23.326-7.777C19.771,55.312,18.029,31.634,24.883,24.778
	c11.331-11.332,58.473,2.167,135.171,58.52c4.727,3.478,11.423,2.457,14.901-2.281c3.488-4.74,2.469-11.417-2.28-14.906
	C125.479,31.403,41.504-22.053,9.805,9.696C-6.56,26.054-2.42,57.659,22.077,103.784c-0.267,0.939-0.682,1.835-0.682,2.835v31.999
	c0,5.896,4.77,10.667,10.664,10.667s10.663-4.771,10.663-10.667v-0.12c31.427,48.712,77.16,103.986,130.62,157.457
	c14.99,14.995,30.126,29.371,45.225,43.025c-36.77,31.862-72.745,58.766-105.052,78.251c-53.359,32.176-81.112,34.728-88.632,27.219
	c-7.085-7.087-4.513-31.81,18.975-74.536l23.565-7.857c5.582-1.854,8.602-7.896,6.737-13.49c-1.845-5.556-7.777-8.549-13.409-6.747
	c12.775-19.721,29.124-42.232,49.805-67.603c3.719-4.563,3.031-11.281-1.53-15.01c-4.551-3.708-11.268-3-15.007,1.531
	c-11.393,13.98-32.172,40.523-51.298,70.177v-0.305c0-5.896-4.768-10.667-10.663-10.667s-10.664,4.771-10.664,10.667v31.999
	c0,1.146,0.434,2.186,0.783,3.247C2.18,403.679-8.941,440.791,9.805,459.532c6.539,6.542,15.505,9.802,26.867,9.802
	c21.118,0,50.507-11.302,87.859-33.832c33.922-20.47,71.686-48.818,110.135-82.299c38.449,33.482,76.214,61.829,110.135,82.299
	c37.353,22.54,66.741,33.842,87.87,33.832c11.352,0,20.318-3.26,26.857-9.802c18.745-18.74,7.635-55.837-12.372-93.673
	C447.505,364.796,447.939,363.754,447.939,362.608z M128,138.667c0,5.896,4.771,10.667,10.667,10.667
	c5.896,0,10.667-4.771,10.667-10.667c0-5.885,4.781-10.667,10.667-10.667c5.885,0,10.667,4.781,10.667,10.667
	c0,5.885-4.781,10.667-10.667,10.667c-5.896,0-10.667,4.771-10.667,10.667c0,5.896,4.771,10.667,10.667,10.667
	c5.885,0,10.667,4.781,10.667,10.667c0,5.885-4.781,10.667-10.667,10.667c-5.885,0-10.667-4.781-10.667-10.667
	c0-5.896-4.771-10.667-10.667-10.667c-5.896,0-10.667,4.771-10.667,10.667c0,17.646,14.354,32,32,32s32-14.354,32-32
	c0-8.188-3.094-15.667-8.167-21.333c5.073-5.667,8.167-13.146,8.167-21.333c0-17.646-14.354-32-32-32S128,121.021,128,138.667z
	 M309.334,213.334c17.646,0,32-14.354,32-32v-42.667c0-17.646-14.354-32-32-32s-32,14.354-32,32v42.667
	C277.334,198.979,291.688,213.334,309.334,213.334z M298.667,138.667c0-5.885,4.781-10.667,10.667-10.667S320,132.782,320,138.667
	v42.667c0,5.885-4.781,10.667-10.667,10.667s-10.667-4.781-10.667-10.667V138.667z M234.667,213.334c17.646,0,32-14.354,32-32
	s-14.354-32-32-32c-3.277,0-6.379,0.639-9.358,1.559C227.719,141.185,234.784,128,256,128c5.896,0,10.667-4.771,10.667-10.667
	s-4.771-10.667-10.667-10.667c-42.187,0-53.333,34.885-53.333,53.333v21.333C202.667,198.979,217.021,213.334,234.667,213.334z
	 M234.667,170.667c5.885,0,10.667,4.781,10.667,10.667c0,5.885-4.781,10.667-10.667,10.667c-5.885,0-10.667-4.781-10.667-10.667
	C224,175.448,228.782,170.667,234.667,170.667z M384,106.667c0-11.76-9.573-21.333-21.333-21.333
	c-11.76,0-21.333,9.573-21.333,21.333S350.907,128,362.667,128C374.427,128,384,118.427,384,106.667z"/>
<g>
</g>
<g>
</g>
<g>
</g>
<g>
</g>
<g>
</g>
<g>
</g>
<g>
</g>
<g>
</g>
<g>
</g>
<g>
</g>
<g>
</g>
<g>
</g>
<g>
</g>
<g>
</g>
<g>
</g>
</svg>
