<svg xmlns="http://www.w3.org/2000/svg" xmlns:xlink="http://www.w3.org/1999/xlink" width="61" height="88" viewBox="0 0 61 88"><defs><path id="9v6wa" d="M994.455 740.225l18.785-34.584h-.008a28.255 28.255 0 0 0 3.544-13.726c0-15.679-12.71-28.389-28.388-28.389S960 676.236 960 691.915a28.252 28.252 0 0 0 4.719 15.658l19.856 38.949c1.325 2.6 5.024 2.647 6.416.083l3.464-6.38"/><path id="9v6wb" d="M1005.63 695.695c-1.497 8.162-8.647 14.346-17.242 14.346-9.682 0-17.532-7.85-17.532-17.532s7.85-17.532 17.532-17.532c5.253 0 9.967 2.31 13.18 5.971"/></defs><g><g opacity=".25" transform="translate(-958 -662)"><use fill="#fff" fill-opacity="0" stroke="#fff" stroke-miterlimit="50" stroke-width="2.73" xlink:href="#9v6wa"/></g><g opacity=".25" transform="translate(-958 -662)"><use fill="#fff" fill-opacity="0" stroke="#fff" stroke-miterlimit="50" stroke-width="2.73" xlink:href="#9v6wb"/></g></g></svg>