<svg xmlns="http://www.w3.org/2000/svg" xmlns:xlink="http://www.w3.org/1999/xlink" width="68" height="58" viewBox="0 0 68 58"><defs><path id="66tva" d="M1113.303 732.186v-4.197c2.801-.511 5.336-.098 7.684 1.361.853.532 1.645 1.164 2.453 1.764 2.961 2.204 6.207 2.175 9.128-.088 5.671-4.392 10.356-4.403 16.052-.034 3.043 2.335 6.266 2.347 9.307.038 5.811-4.414 10.23-4.4 16.05-.046a9.702 9.702 0 0 0 3.04 1.526c1.076.312 2.257.257 3.531.375v3.839c-2.429.475-4.8.313-7.012-.932-1.124-.632-2.16-1.428-3.199-2.197-2.828-2.101-5.985-2.118-8.766-.01-6.174 4.68-10.483 4.682-16.586.005-2.772-2.125-5.908-2.145-8.73.042-2.498 1.933-5.107 3.742-8.419 3.243-2.138-.323-4.419-.87-6.222-1.984-2.54-1.572-4.805-3.49-8.31-2.705"/><path id="66tvb" d="M1180.57 701.697v3.241c-3.475.407-6.485-.367-9.167-2.465-4.196-3.284-6.619-3.294-10.802-.08-4.618 3.547-9.88 3.563-14.54.047-4.346-3.28-6.638-3.261-10.994.095-4.026 3.1-9.185 3.483-13.263.584-2.58-1.832-5.05-3.546-8.285-3.054-.159-.346-.257-.47-.27-.602-.351-3.698-.02-4.186 3.594-3.409 2.098.45 4.2 1.464 5.978 2.688 3.958 2.722 6.335 2.855 10.171.004 5.304-3.941 10.016-3.916 15.371.082 3.62 2.701 6.333 2.935 9.74-.014 4.212-3.645 10.959-3.975 15.662-.065 1.691 1.404 4.176 1.852 6.805 2.948"/><path id="66tvc" d="M1113.314 748.146v-4.225c3.016-.417 5.744.093 8.243 1.741.66.436 1.263.96 1.903 1.427 3.19 2.333 5.954 2.41 9.067-.08 3.1-2.48 6.476-3.947 10.398-2.9 1.951.52 3.826 1.617 5.514 2.777 3.644 2.506 6.08 2.601 9.63-.002 5.683-4.163 10.019-4.06 15.786-.075 1.851 1.278 4.21 1.824 6.694 2.852v3.125c-3.353.63-6.337-.218-9.028-2.278-4.393-3.364-6.683-3.392-11.012-.1-4.588 3.488-9.73 3.503-14.366.04-4.48-3.347-6.638-3.322-11.203.131-3.899 2.953-9.029 3.354-12.925.655-2.64-1.828-5.106-3.78-8.701-3.088"/><path id="66tvd" d="M1113.343 716.187v-4.247c3.453-.477 6.404.325 9.04 2.353 4.421 3.401 6.646 3.403 11.165.02 4.513-3.38 9.623-3.38 14.177-.002 4.567 3.387 6.652 3.383 11.157-.021 4.302-3.25 9.635-3.426 13.81-.197 2.31 1.787 4.667 3.092 7.832 2.729v3.982c-3.35.455-6.289-.172-8.969-2.235-4.582-3.529-6.562-3.497-11.162-.085-4.633 3.435-9.681 3.4-14.34-.1-4.337-3.26-6.515-3.26-10.84-.009-4.73 3.554-9.821 3.603-14.5-.027-2.141-1.662-4.383-2.735-7.37-2.161"/></defs><g><g opacity=".25" transform="translate(-1113 -695)"><use fill="#fff" xlink:href="#66tva"/></g><g opacity=".25" transform="translate(-1113 -695)"><use fill="#fff" xlink:href="#66tvb"/></g><g opacity=".25" transform="translate(-1113 -695)"><use fill="#fff" xlink:href="#66tvc"/></g><g opacity=".25" transform="translate(-1113 -695)"><use fill="#fff" xlink:href="#66tvd"/></g></g></svg>