<svg xmlns="http://www.w3.org/2000/svg" xmlns:xlink="http://www.w3.org/1999/xlink" width="107" height="44" viewBox="0 0 107 44"><defs><path id="3olza" d="M1210.48 679.196c-9.237 0-16.758 7.498-16.766 16.714-.006 4.477 1.758 8.695 4.966 11.876 3.143 3.12 7.274 4.838 11.631 4.838l.258-.002c4.398 0 8.543-1.718 11.684-4.84 3.195-3.172 4.954-7.372 4.954-11.826 0-9.24-7.504-16.757-16.727-16.76zm-.05 38.777c-.36 0-.723-.009-1.088-.025a21.512 21.512 0 0 1-11.227-3.718c-3.74-2.524-6.493-5.935-8.187-10.135-1.024-2.543-1.546-5.306-1.596-8.448-.031-1.893-1.857-3.805-3.986-4.174-1.35-.236-2.67.134-3.753 1.03-1.125.933-1.808 2.282-1.826 3.605-.104 7.272-3.144 13.2-9.036 17.617-2.553 1.914-5.471 3.198-8.677 3.812-3.047.586-5.93.576-8.813-.03-6.7-1.405-11.612-5.051-15.02-11.147-1.18-2.112-1.971-4.485-2.351-7.055l-.282-.014c-.754-.027-1.542-.053-2.32-.277-1.582-.456-2.493-1.97-2.22-3.685.242-1.527 1.683-2.749 3.28-2.779.522-.01 1.042-.009 1.531-.005l1.312.002-.003 3.407c.08.026.157.055.234.085v-.082l3.531-.001c.002 4.468 1.77 8.675 4.98 11.85 3.14 3.107 7.276 4.818 11.644 4.818l.258-.002c4.385 0 8.522-1.723 11.665-4.853 3.193-3.178 4.95-7.39 4.946-11.86-.003-4.445-1.744-8.634-4.902-11.798a16.62 16.62 0 0 0-11.834-4.912c-6.868.01-12.952 4.128-15.53 10.493l-.741 1.832-4.7-2.556.604-1.465c3.197-7.76 9.32-12.32 18.2-13.556 11.043-.524 18.51 4.177 22.957 14.318 1.751-1.352 3.796-2.037 6.098-2.039 2.14-.072 4.269.629 6.086 2.037 4.336-9.853 11.881-14.7 22.388-14.364 11.022 1.376 17.812 7.643 20.349 18.644.44-.002.897-.002 1.356.005 1.71.03 3.181 1.307 3.347 2.906.2 1.856-.892 3.392-2.652 3.73-.73.14-1.467.133-2.113.126l-.067-.002c-1.125 6.78-4.657 11.995-10.517 15.567-3.38 2.058-7.186 3.098-11.326 3.098z"/></defs><g><g opacity=".25" transform="translate(-1130 -674)"><use fill="#edeeef" xlink:href="#3olza"/></g></g></svg>