<svg xmlns="http://www.w3.org/2000/svg" xmlns:xlink="http://www.w3.org/1999/xlink" width="120" height="78" viewBox="0 0 120 78"><defs><path id="caeha" d="M1238.173 703.701v1.245a1.745 1.745 0 0 1-.428-1.871zm3.667 6.684c-.021 0-.034.002-.04.007-.02-.071-.054-.24-.054-.581-.011-6.17-.01-12.34-.007-18.51l-.03-31.627c0-.35.02-.56.038-.682.172-.035.514-.08 1.183-.08l3.983-.009c1.855-.007 3.71-.012 5.565-.012.85 0 1.797.012 2.034.073.01.071.02.182.02.346l-.038 39.772.002 3.965c.001 2.306.005 4.612-.007 6.92 0 .177-.013.297-.025.373-.125.029-.366.065-.787.068-3.59.022-7.169.03-10.763.032-.642 0-.961-.055-1.074-.055zm-45.804 12.6c-1.92 1.541-3.453 1.882-5.123 1.14-1.743-.774-2.574-2.139-2.78-4.566l-.333-3.905-2.725 2.815c-1.78 1.839-3.477 2.331-5.515 1.59-1.294-.47-2.799-1.437-2.938-4.753l-.107-2.545-2.356.972c-.348.143-.685.296-1.017.446-.607.275-1.18.533-1.71.676-1.25.33-2.589.052-3.677-.78-1.083-.827-1.709-2.036-1.718-3.282a.888.888 0 0 1 .182-.344c9.8-11.17 19.621-22.323 29.442-33.477l3.532-4.01c.116-.133.24-.274.353-.4.157.099.318.204.427.274 1.141.742 2.233 1.56 3.389 2.427 2.215 1.663 4.505 3.38 7.176 4.511 8.201 3.475 14.473 3.79 19.166.974l.251-.15.191-.222c3.26-3.832.467-7.151-1.38-9.347-1.472-1.75-3.429-3.202-5.321-4.606-1.374-1.016-2.669-1.978-3.72-2.998-.363-.353-1.12-.994-1.908-1.648.318-.095.631-.191.922-.279 1.743-.526 2.863-.865 3.602-1.123.19.059.383.116.578.17.765.226 1.49.438 2.092.748 1.143.592 2.254 1.252 3.364 1.912.911.54 1.821 1.08 2.749 1.586 1.978 1.08 4.091 2.1 6.576 2.116l-.003 8.665c-.01 8.924-.018 17.844-.11 26.861-2.111.987-5.8 3.318-12.562 8.107-5.328 3.773-10.59 7.797-15.68 11.69-1.715 1.312-3.429 2.625-5.148 3.928-.951.721-1.99.976-2.937.705-.936-.266-1.69-1.026-2.12-2.139a7.032 7.032 0 0 1-.164-.496l-.923-2.857zm5.97 7.547c1.5 0 3.02-.526 4.347-1.53 1.721-1.308 3.44-2.622 5.16-3.937 5.063-3.874 10.3-7.879 15.576-11.614 5.776-4.09 9.265-6.264 11.084-7.293l.005 3.66c.007 3.753 2.706 4.188 4.734 4.19 3.623-.002 7.192-.011 10.786-.032 2.881-.018 4.347-1.361 4.358-3.99.013-2.316.01-4.63.007-6.943l-.002-3.958.038-39.773c0-1.816-.762-3.98-4.395-3.987-2.267-.007-4.534.002-6.802.01l-3.976.01c-2.484.003-4.782.53-4.785 4.327v3.657c-1.862.117-3.457-.659-5.307-1.668-.892-.487-1.764-1.006-2.638-1.525-1.17-.694-2.342-1.388-3.548-2.01-.906-.47-1.833-.74-2.729-1.003-.351-.103-.703-.207-1.049-.323l-1.618-.54-.32.834c-.794.254-2.154.666-3.224.99-4.885 1.477-4.885 1.477-5.228 2.364l-.47 1.22 1.021.817c1.058.844 3.586 2.895 4.21 3.5 1.218 1.184 2.672 2.261 4.078 3.305 1.728 1.28 3.515 2.606 4.717 4.036 2.23 2.65 2.417 3.418 1.575 4.513-3.594 1.989-8.865 1.538-15.682-1.35-2.269-.96-4.288-2.474-6.427-4.08-1.15-.863-2.342-1.756-3.587-2.565-2.417-1.571-3.476-1.423-5.415.776l-3.516 3.996c-9.821 11.154-19.644 22.309-29.446 33.479-.52.59-1.073 1.607-1.066 2.679.012 2.397 1.15 4.634 3.12 6.138 1.972 1.503 4.432 2.012 6.761 1.387a9.685 9.685 0 0 0 1.053-.35c.685 2.685 2.337 4.517 4.935 5.463 1.784.649 4.251.957 6.866-.537.767 2.1 2.176 3.587 4.261 4.51 2.292 1.016 4.55.916 6.846-.31.908 1.599 2.31 2.747 3.973 3.22.563.159 1.14.237 1.719.237z"/><path id="caehb" d="M1207.216 674.523c-.565.819-1.605.94-2.192.612l.917-1.495zm-49.06 34.847c-.028-.3-.028-.856-.028-1.402l.002-22.976c.005-4.836.01-9.671-.027-14.509 9.818-2.235 18.294-5.244 25.91-9.2 4.267-2.216 8.716-3.728 13.223-4.495 5.22-.89 9.19-.052 12.495 2.634 5.958 4.84 11.905 9.695 17.852 14.546l.264.218c.151.123.287.268.424.407l.191.196c.964.969.944 1.354.944 1.357-.002.006-.041.366-1.067 1.101-3.744 2.68-7.565 3.014-11.359.993-6.307-3.353-9.715-5.773-10.012-6.023l-.438.465.36-.586-.007-.006-1.122-.692a157.77 157.77 0 0 0-3.84-2.319c-1.872-1.079-3.723-.745-5.22.946-7.022 7.957-14.07 15.896-21.117 23.836l-9.024 10.167a372.155 372.155 0 0 0-5.458 6.273l-.011.013c-.405-.164-.792-.259-1.14-.345-.187-.044-.374-.087-.556-.15-.459-.155-.969-.328-1.238-.449zm3.095 4.632c.923 0 1.782-.467 2.57-1.394a380.476 380.476 0 0 1 5.407-6.211l9.024-10.17c7.05-7.94 14.099-15.88 21.125-23.84.273-.31.417-.36.415-.36.008 0 .111.008.345.142a148.06 148.06 0 0 1 3.75 2.267l1.053.647c1.231 1.092 4.023 2.935 10.364 6.308 5.017 2.67 10.244 2.242 15.112-1.244 1.6-1.147 2.433-2.358 2.547-3.703.15-1.812-1.053-3.248-1.973-4.172l-.163-.166a8.792 8.792 0 0 0-.73-.688l-.258-.213c-5.948-4.855-11.899-9.71-17.858-14.551-4.107-3.334-9.128-4.442-15.344-3.384-4.873.83-9.673 2.46-14.268 4.846-7.356 3.821-15.565 6.73-25.102 8.9-1.827.417-2.747 1.555-2.731 3.385.037 4.862.032 9.725.027 14.587l-.002 22.987c0 3.452.481 4.135 3.689 5.223.28.095.569.168.857.239.279.068.54.132.7.209.496.237.979.356 1.444.356z"/><path id="caehc" d="M1143.188 719.075h-.387c-2.032-.001-4.73-.437-4.738-4.19-.009-6.05-.007-12.1-.005-18.15l.002-6.979-.06-1.653 1.81-.13h1.817l-.002 8.763c-.002 6.047-.003 12.095.006 18.142 0 .34.033.512.053.582.04-.03.337.046 1.119.048 3.576-.002 7.172-.01 10.759-.032.42-.004.663-.04.788-.068.013-.077.023-.198.025-.375.013-2.306.01-4.612.007-6.919l-.001-3.965.035-39.77c0-.164-.009-.276-.02-.346-.237-.062-1.186-.073-2.036-.073-1.854 0-3.707.004-5.56.01l-3.985.01c-.164 0-.32.003-.462.009l-.15-3.564c.191-.007.394-.013.61-.013l3.976-.009c2.269-.007 4.545-.014 6.802-.01 3.635.007 4.395 2.172 4.393 3.988l-.036 39.772.002 3.958c.002 2.313.005 4.629-.007 6.942-.015 2.631-1.48 3.972-4.36 3.99-3.465.022-6.931.032-10.395.032z"/></defs><g><g opacity=".25" transform="translate(-1138 -653)"><use fill="#edeeef" xlink:href="#caeha"/></g><g opacity=".25" transform="translate(-1138 -653)"><use fill="#edeeef" xlink:href="#caehb"/></g><g opacity=".25" transform="translate(-1138 -653)"><use fill="#edeeef" xlink:href="#caehc"/></g></g></svg>