<svg xmlns="http://www.w3.org/2000/svg" xmlns:xlink="http://www.w3.org/1999/xlink" width="105" height="110" viewBox="0 0 105 110"><defs><path id="mn3ia" d="M1382.148 818.273h-6.261l6.26-6.925zm51.698 73.903h-62.601V823.48c3.48 0 6.926.022 10.372-.006 4.553-.037 5.645-1.164 5.667-5.787.015-3.35.002-6.7.002-10.33h46.56zm5.154-42.627c-.005-13.508.004-27.018-.009-40.528-.004-6.164-.635-6.831-6.608-6.838-15.131-.021-30.262-.09-45.391.098-1.884.022-4.135 1.053-5.553 2.345-4.588 4.176-8.985 8.584-13.19 13.146-1.209 1.313-2.138 3.448-2.15 5.212-.14 22.831-.094 45.663-.081 68.494.004 4.952.931 5.914 5.905 5.92 20.263.027 40.529.025 60.792.003 5.203-.007 6.282-1.168 6.287-6.51.006-13.782.002-27.56-.002-41.342z"/><path id="mn3ib" d="M1413.331 902.966c14.636-2.583 16.631-.208 30.309 3.509 7.388-27.547 14.7-54.802 22.118-82.457-6.855-1.803-20.068-6.2-26.71-7.804-3.208-.774-5.323-1.944-3.616-6.194 8.743 2.343 24.314 7.124 33.093 9.874 1.136.355 2.337 3.708 1.936 5.27-5.026 19.557-10.349 39.04-15.578 58.545-2.094 7.808-4.237 15.603-6.183 23.449-.904 3.647-3.008 4.988-6.504 4.054-13.12-3.506-15.18-4.538-28.865-8.246z"/><path id="mn3ic" d="M1378.41 840.52v-4.335h46.595v4.335z"/><path id="mn3id" d="M1378.41 851.897v-4.334h46.595v4.334z"/><path id="mn3ie" d="M1378.41 863.275v-4.334h46.595v4.334z"/><path id="mn3if" d="M1378.41 874.653v-4.335h46.595v4.335z"/></defs><g><g opacity=".26" transform="translate(-1366 -802)"><use fill="#fff" xlink:href="#mn3ia"/></g><g opacity=".26" transform="translate(-1366 -802)"><use fill="#fff" xlink:href="#mn3ib"/></g><g opacity=".26" transform="translate(-1366 -802)"><use fill="#fff" xlink:href="#mn3ic"/></g><g opacity=".26" transform="translate(-1366 -802)"><use fill="#fff" xlink:href="#mn3id"/></g><g opacity=".26" transform="translate(-1366 -802)"><use fill="#fff" xlink:href="#mn3ie"/></g><g opacity=".26" transform="translate(-1366 -802)"><use fill="#fff" xlink:href="#mn3if"/></g></g></svg>