<svg id="Group_1749" data-name="Group 1749" xmlns="http://www.w3.org/2000/svg" width="114.834" height="36.455" viewBox="0 0 114.834 36.455">
  <path id="Path_4996" data-name="Path 4996" d="M111.732,276.372H75.151c-.863,0-.864,0-.864-.864q0-16.918,0-33.837a2.824,2.824,0,0,1,.063-.807,1.15,1.15,0,0,1,1.1-.892c.185-.012.372-.007.558-.007h72.247a5.9,5.9,0,0,1,.659.015,1.122,1.122,0,0,1,.972.963,4.164,4.164,0,0,1,.015.507q0,16.716,0,33.431c0,.152,0,.305-.01.457a1.121,1.121,0,0,1-1.023,1.022c-.219.02-.44.011-.66.011Zm5.654-18.543c-.176-.012-.217-.159-.287-.265-1.284-1.932-2.574-3.86-3.84-5.8a1.352,1.352,0,0,0-1.257-.7c-.558.015-1.118-.007-1.676.007-.673.018-.964.3-.964.975q-.013,6.121,0,12.242c0,.7.3.97,1.011.981.745.011,1.49.008,2.235,0,.76-.007,1.008-.252,1.009-1.006,0-1.692,0-3.386,0-5.079a4,4,0,0,1,.01-.406.248.248,0,0,1,.077-.172c.1-.059.149.037.2.1.081.109.155.223.229.336,1.216,1.856,2.436,3.708,3.641,5.57a1.32,1.32,0,0,0,1.226.66c.576-.013,1.152.006,1.727-.006.722-.015,1-.272,1-.982q.01-6.121,0-12.243c0-.705-.282-.962-1.008-.974-.745-.011-1.489-.008-2.235,0s-1.009.252-1.011,1c0,1.744,0,3.488,0,5.232C117.466,257.478,117.531,257.673,117.386,257.829Zm16.562.05c-.113-.148-.2-.249-.272-.36-1.272-1.919-2.55-3.833-3.8-5.763a1.365,1.365,0,0,0-1.307-.695c-.524.023-1.05,0-1.575.007-.713.011-.976.27-.977.991q-.006,6.12,0,12.239c0,.694.266.961.946.97q1.142.016,2.285,0c.776-.011,1.023-.267,1.025-1.055,0-1.692,0-3.385,0-5.077,0-.177-.063-.371.082-.537.233.061.288.278.393.437q1.829,2.779,3.643,5.565a1.322,1.322,0,0,0,1.221.673c.576-.014,1.152,0,1.727,0,.719-.011.967-.263.968-.993q0-6.095,0-12.188c0-.781-.243-1.016-1.042-1.021q-1.042-.007-2.082,0c-.847,0-1.131.285-1.134,1.126,0,1.693,0,3.385,0,5.078A.954.954,0,0,1,133.948,257.879Zm-48.067.252c0,2.015,0,4.031,0,6.046,0,.82.256,1.082,1.048,1.092s1.558.013,2.337,0c.6-.013.86-.285.87-.882s0-1.219,0-1.828c0-.687.038-.723.716-.724,1.388,0,2.777,0,4.165,0,.7,0,.9-.213.913-.916.009-.559.007-1.119,0-1.677-.009-.756-.209-.955-.978-.957-1.388,0-2.778,0-4.166,0-.627,0-.648-.025-.651-.667s0-1.287,0-1.931.026-.66.658-.66c1.829,0,3.657,0,5.486,0,.706,0,.954-.246.962-.941.008-.644.006-1.287,0-1.93,0-.841-.242-1.075-1.1-1.076q-4.546,0-9.093,0c-.935,0-1.172.237-1.173,1.171Q85.876,255.185,85.881,258.131Zm14.934,0c0,2.03,0,4.059,0,6.089,0,.774.257,1.033,1.035,1.043q1.142.016,2.283,0c.659-.01.935-.274.936-.928q.009-6.165,0-12.329c0-.677-.277-.935-.973-.943-.727-.009-1.454-.007-2.181,0-.865.008-1.1.25-1.1,1.133Q100.812,255.167,100.816,258.136Z" transform="translate(-35.071 -239.93)" fill="#fff"/>
  <path id="Path_4997" data-name="Path 4997" d="M52.916,276.384H35.9c-1.1,0-1.532-.413-1.578-1.515-.007-.169,0-.339,0-.507q0-16.2,0-32.407a6.836,6.836,0,0,1,.021-.709,1.242,1.242,0,0,1,1.427-1.293c3.944,0,7.891-.067,11.834.027a22.328,22.328,0,0,1,10.5,2.966A24.276,24.276,0,0,1,70.031,258.2a20.985,20.985,0,0,1,.781,5.614q0,5.918,0,11.835c0,.735,0,.738-.73.738Z" transform="translate(-34.318 -239.929)" fill="#fff"/>
</svg>
