<svg xmlns="http://www.w3.org/2000/svg" width="25" height="25" viewBox="0 0 25 25">
    <g fill="none" fill-rule="evenodd">
        <path d="M-4-4h34v34H-4z"/>
        <path fill="#FFF" d="M17.958 15.833H16.84l-.396-.382a9.168 9.168 0 0 0 2.224-5.993A9.208 9.208 0 0 0 9.458.25 9.208 9.208 0 0 0 .25 9.458a9.208 9.208 0 0 0 9.208 9.209c2.281 0 4.378-.836 5.993-2.225l.382.397v1.12l7.084 7.069 2.11-2.111-7.069-7.084zm-8.5 0a6.366 6.366 0 0 1-6.375-6.375 6.366 6.366 0 0 1 6.375-6.375 6.366 6.366 0 0 1 6.375 6.375 6.366 6.366 0 0 1-6.375 6.375z"/>
    </g>
</svg>
