<svg xmlns="http://www.w3.org/2000/svg" width="116" height="115.999" viewBox="0 0 116 115.999">
  <g id="Group_1" data-name="Group 1" transform="translate(-522.718 -180.737)">
    <path id="Path_3" data-name="Path 3" d="M638.517,296.735h-115.8v-116h116V270.72h-8.7V189.439h-98.6v98.594h107.1Z" transform="translate(0 0)" fill="#fff"/>
    <path id="Path_4" data-name="Path 4" d="M618.084,273.689l11.648-11.212h-14.32l-3.336,3.242L597.7,245.789l9.083-10.283.35-.371a16.414,16.414,0,0,0,2.581-4.009l.018,0a13.794,13.794,0,0,0,1.084-5.107c0-9.627-7.824-16.614-18.607-16.614-10.837,0-18.7,6.987-18.7,16.614a14.31,14.31,0,0,0,2.478,7.921l.266.327-.05.026,7.516,9.967-7.532,7.15c-9.159,7.69-9.083,15.458-9.058,18.015,0,.159.458,15.92,22.24,17.669,8.265.655,16.4-1.705,22-6.15l2.14,2.839-.025.034,2.629,3.546h12.962l-6.037-7.107Zm-25.876-55.7c6.04,0,8.181,4.325,8.181,8.031a7.1,7.1,0,0,1-.137,1.269,10.464,10.464,0,0,1-2.389,3.546L592,237.516l-5.786-6.1-1.01-1.444a6.872,6.872,0,0,1-1.274-3.946C583.93,222.317,586.1,217.992,592.208,217.992Zm-2.549,59.836c-5.722-.459-9.194-2.108-11.137-6.2a10.928,10.928,0,0,1-.415-1.164,8.316,8.316,0,0,1-.207-1.182c0-3.884,1.709-6.561,4.117-9.269l8.536-7.534,14.423,20.146C601.769,276.2,595.676,278.32,589.659,277.828Z" transform="translate(-16.664 -10.761)" fill="#fff"/>
  </g>
</svg>
