<svg xmlns="http://www.w3.org/2000/svg" xmlns:xlink="http://www.w3.org/1999/xlink" width="73" height="76" viewBox="0 0 73 76"><defs><path id="bv4ja" d="M711.4 1395.662c13.15 0 23.879 10.687 23.879 23.88s-10.686 23.88-23.88 23.88c-13.148 0-23.88-10.687-23.88-23.88s10.688-23.88 23.88-23.88m0 53.036a29.013 29.013 0 0 0 17.46-5.804l21.68 21.68c.528.528 1.188.791 1.847.791.66 0 1.363-.263 1.848-.79 1.01-1.012 1.01-2.684 0-3.739l-21.461-21.504c4.793-5.19 7.783-12.139 7.783-19.79 0-16.052-13.061-29.157-29.156-29.157-16.096 0-29.157 13.105-29.157 29.157 0 16.051 13.061 29.156 29.157 29.156"/><path id="bv4jb" d="M700.67 1422.092h8.355v8.356a2.647 2.647 0 0 0 2.639 2.639 2.646 2.646 0 0 0 2.638-2.64v-8.355h8.356a2.646 2.646 0 0 0 2.638-2.638 2.647 2.647 0 0 0-2.638-2.639h-8.356v-8.355a2.646 2.646 0 0 0-2.638-2.64 2.647 2.647 0 0 0-2.64 2.64v8.355h-8.355a2.646 2.646 0 0 0-2.638 2.64 2.646 2.646 0 0 0 2.638 2.637"/></defs><g><g transform="translate(-682 -1390)"><use fill="#fff" xlink:href="#bv4ja"/></g><g transform="translate(-682 -1390)"><use fill="#fff" xlink:href="#bv4jb"/></g></g></svg>