<?xml version="1.0" encoding="utf-8"?>
<!-- Generator: Adobe Illustrator 23.0.3, SVG Export Plug-In . SVG Version: 6.00 Build 0)  -->
<svg version="1.1" id="Layer_1" xmlns="http://www.w3.org/2000/svg" xmlns:xlink="http://www.w3.org/1999/xlink" x="0px" y="0px"
	 viewBox="0 0 538.6 263.9" style="enable-background:new 0 0 538.6 263.9;" xml:space="preserve">
<style type="text/css">
	.st0{fill:#FFFFFF;}
</style>
<g>
	<path class="st0" d="M100.4,182.3c3.4-5.2,5.7-11,7.4-16.3v-26.6H92.6c-1.9,0-3,0.9-3,2.1c0,0.9,0.5,1.8,2.8,2.5l6.5,2.1
		c3.9,1.4,5.5,2.8,5.5,5.8c0,4.9-4.8,17.1-8.5,23.3l-27.2-42.9C85.7,117,90,110.8,90,102.5c0-12.2-9.5-21.2-21.5-21.2
		c-13.2,0-24,8.5-24,20.8c0,9.4,3.4,15.9,12,29.5c-15.2,11.7-27.9,24-27.9,41.3c0,20.5,18.5,31.6,35.1,31.6
		c12.7,0,21.5-4.9,30.4-13.6l8.1,12.2h5.7V194c0,0,0,0,0,0L100.4,182.3z M54.3,102.7c0-7.8,5.5-14.7,13.6-14.7
		c6.2,0,13.2,3.5,13.2,13.6c0,7.8-3.9,12.4-16.8,24.2C56.1,113,54.3,108.7,54.3,102.7z M64.9,195.7c-12.5,0-26.5-8.5-26.5-23.8
		c0-10.8,7.1-21,22.4-33.2l28.9,45.7C83.3,191.1,74.4,195.7,64.9,195.7z"/>
</g>
<g>
	<path class="st0" d="M166.6,83.1c-2-3.4-4.3-5.4-8.5-5.4c-4.4,0-8.2,3.1-8.2,7.6c0,4.2,4.4,6.2,7.7,7.7l3.3,1.4
		c6.4,2.8,11.8,6,11.8,13.8c0,8.6-6.9,15.2-15.5,15.2c-7.9,0-13.8-5.1-15.3-12.7l5.4-1.5c0.7,5,4.6,9.1,9.9,9.1
		c5.3,0,10.1-4,10.1-9.6c0-5.7-4.5-7.7-9.1-9.8l-3-1.3c-5.7-2.6-10.7-5.5-10.7-12.6c0-7.6,6.5-12.5,13.8-12.5
		c5.5,0,10.1,2.8,12.7,7.6L166.6,83.1z"/>
	<path class="st0" d="M220.2,84.2c-3.9-4-9.3-6.5-15-6.5c-11,0-19.8,9.5-19.8,20.4c0,10.8,8.9,20.4,20,20.4c5.5,0,11-2.6,14.9-6.5
		v6.8c-4.2,3.1-9.5,4.8-14.7,4.8c-13.9,0-25.6-11.3-25.6-25.3c0-14.1,11.5-25.6,25.6-25.6c5.5,0,10.3,1.6,14.7,4.8V84.2z"/>
	<path class="st0" d="M262.3,93.4v-20h5.5v49.2h-5.5V98.5h-25.2v24.1h-5.5V73.5h5.5v20H262.3z"/>
	<path class="st0" d="M287.3,108.7l-5.9,14h-6l22.7-51.5l22.1,51.5h-6.1l-5.8-14H287.3z M297.9,83.9l-8.4,19.7h16.6L297.9,83.9z"/>
	<path class="st0" d="M333,117.6h13.6v5.1h-19.1V73.5h5.5V117.6z"/>
	<path class="st0" d="M361.3,108.7l-5.9,14h-6l22.7-51.5l22.1,51.5h-6.1l-5.8-14H361.3z M371.9,83.9l-8.4,19.7h16.6L371.9,83.9z"/>
</g>
<g>
	<path class="st0" d="M144.9,152.2c0-0.6-0.3-1.4-1.3-1.8l-3.3-1c-1.3-0.3-1.6-0.7-1.6-1.3c0-0.8,0.6-1.3,1.8-1.3h18.9
		c13.5,0,16,11,16,15.9c0,9.3-7.4,17.1-18.1,17.1h-6.8v21.1c0,0.6,0.3,1.4,1.3,1.8l3.3,1c1.3,0.3,1.6,0.7,1.6,1.3
		c0,0.8-0.6,1.3-1.8,1.3h-14.5c-1.3,0-1.8-0.5-1.8-1.3c0-0.7,0.3-1,1.6-1.3l3.3-1c1-0.3,1.3-1.2,1.3-1.8V152.2z M150.6,176h6.3
		c9.2,0,12.4-5.4,12.4-12.5c0-10.5-6.5-13.1-11.2-13.1h-7.4V176z"/>
	<path class="st0" d="M198.6,146.7h2.4l19.2,54.8c0.3,0.7,0.7,0.9,2.4,1.6l2.6,1c0.5,0.2,0.8,0.3,0.8,1.2c0,0.6-0.5,1-1.2,1h-14.4
		c-0.8,0-1.4-0.4-1.4-1.3c0-0.4,0.2-0.8,0.5-0.9l2.8-1c1.4-0.5,1.6-0.7,1.6-1.3c0-0.6-0.2-1.2-0.5-2.1l-4.2-12h-20.9l-3.3,9.2
		c-0.7,1.9-1.1,3.3-1.1,4.3c0,0.9,0.3,1.4,1.6,1.9l2.5,1c0.5,0.2,0.7,0.7,0.7,0.9c0,0.8-0.5,1.3-1.9,1.3h-12.6
		c-0.7,0-1.4-0.3-1.4-1.4c0-0.3,0.3-0.7,0.5-0.8l3.4-1c1.3-0.4,2.3-1.3,2.6-2.3L198.6,146.7z M189.9,183.5H208l-8.8-26.4h-0.2
		L189.9,183.5z"/>
	<path class="st0" d="M234.8,152.2c0-0.6-0.3-1.4-1.3-1.8l-3.3-1c-1.3-0.3-1.6-0.7-1.6-1.3c0-0.8,0.6-1.3,1.8-1.3h18.9
		c13.5,0,16,11,16,15.9c0,7.2-4.4,13.5-12,16.4l11.6,22.4c0.4,0.8,0.9,1,1.6,1.2l4.8,1.5c0.8,0.2,0.8,0.5,0.8,1.2c0,0.6-0.5,1-1.1,1
		h-9.9l-14-26.6h-6.7v21.1c0,0.6,0.3,1.4,1.3,1.8l3.3,1c1.3,0.3,1.6,0.7,1.6,1.3c0,0.8-0.6,1.3-1.8,1.3h-14.5
		c-1.3,0-1.8-0.5-1.8-1.3c0-0.7,0.3-1,1.6-1.3l3.3-1c1-0.3,1.3-1.2,1.3-1.8V152.2z M240.5,176h6.3c8.2,0,12.4-4.3,12.4-12.5
		c0-10.5-6.5-13.1-11.2-13.1h-7.4V176z"/>
	<path class="st0" d="M290.4,150.4h-11.2c-0.9,0-1.4,0.3-1.8,1.1l-2.5,4.5c-0.7,1.3-1.1,1.4-1.8,1.4c-0.8,0-1.3-0.9-1.3-1.5
		c0-0.4,0.2-1.3,0.3-1.8l1.3-7.4h40.1l1.3,7.4c0.1,0.5,0.3,1.4,0.3,1.8c0,0.6-0.5,1.5-1.3,1.5c-0.8,0-1.2-0.1-1.8-1.4l-2.5-4.5
		c-0.4-0.8-0.9-1.1-1.8-1.1h-11.2v50.4c0,0.6,0.3,1.4,1.3,1.8l3.3,1c1.3,0.3,1.6,0.7,1.6,1.3c0,0.8-0.6,1.3-1.8,1.3H286
		c-1.3,0-1.8-0.5-1.8-1.3c0-0.7,0.3-1,1.6-1.3l3.3-1c1-0.3,1.3-1.2,1.3-1.8V150.4z"/>
	<path class="st0" d="M325.2,151.9c0-0.8-0.3-1.2-1.3-1.5l-2.8-1c-1.5-0.6-1.8-0.8-1.8-1.4c0-0.7,0.3-1.3,1.3-1.3h8.4l33.3,47.7h0.2
		v-41.5c0-1.3-0.2-2.1-1.6-2.5l-3.2-1c-1.3-0.4-1.5-0.7-1.5-1.3c0-1.1,0.5-1.4,1.8-1.4h13.2c1.3,0,1.8,0.3,1.8,1.4
		c0,0.6-0.2,0.8-1.5,1.3l-3.2,1c-1.4,0.4-1.6,1.2-1.6,2.5v53.3h-2.3l-34.8-49.5h-0.2v43.3c0,1.8,0.5,2.2,1.6,2.5l3.2,1
		c1.3,0.4,1.5,0.7,1.5,1.3c0,1.1-0.5,1.4-1.8,1.4h-13.2c-1.3,0-1.8-0.3-1.8-1.4c0-0.6,0.2-0.8,1.5-1.3l3.2-1
		c1.1-0.3,1.6-0.8,1.6-2.5V151.9z"/>
	<path class="st0" d="M385.1,152.2c0-0.6-0.3-1.4-1.3-1.8l-3.3-1c-1.3-0.3-1.6-0.7-1.6-1.3c0-0.8,0.6-1.3,1.8-1.3h33.2l0.6,7.4
		c0,0.3,0.1,0.9,0.1,1.3c0,1.2-0.3,1.8-1.2,1.8c-0.3,0-1-0.5-1.5-1.7l-1.2-3c-0.5-1.3-1.1-2-2.5-2h-17.4v23.9H407
		c1.6,0,1.8-1.1,2.1-2.4l0.5-2.3c0.3-1.1,0.8-1.5,1.3-1.5c0.7,0,1.1,0.7,1.1,1.2v13.9c0,0.5-0.4,1.2-1.1,1.2c-0.6,0-1.1-0.4-1.3-1.5
		l-0.5-2.3c-0.2-1.3-0.5-2.4-2.1-2.4h-16.1v22.4c0,1.4,0.6,2.2,2,2.2h15.3c1.3,0,1.7-0.7,2.3-1.7l3.3-5.4c0.8-1.2,1.6-1.3,1.8-1.3
		c1,0,1.3,0.9,1.3,1.4c0,0.4-0.3,1.3-0.6,2.8l-1.9,7.9h-33.7c-1.3,0-1.8-0.5-1.8-1.3c0-0.7,0.3-1,1.6-1.3l3.3-1
		c1-0.3,1.3-1.2,1.3-1.8V152.2z"/>
	<path class="st0" d="M430,152.2c0-0.6-0.3-1.4-1.3-1.8l-3.3-1c-1.3-0.3-1.6-0.7-1.6-1.3c0-0.8,0.6-1.3,1.8-1.3h18.9
		c13.5,0,16,11,16,15.9c0,7.2-4.4,13.5-12,16.4l11.6,22.4c0.4,0.8,0.9,1,1.6,1.2l4.8,1.5c0.8,0.2,0.8,0.5,0.8,1.2c0,0.6-0.5,1-1.1,1
		h-9.9l-14-26.6h-6.7v21.1c0,0.6,0.3,1.4,1.3,1.8l3.3,1c1.3,0.3,1.6,0.7,1.6,1.3c0,0.8-0.6,1.3-1.8,1.3h-14.5
		c-1.3,0-1.8-0.5-1.8-1.3c0-0.7,0.3-1,1.6-1.3l3.3-1c1-0.3,1.3-1.2,1.3-1.8V152.2z M435.7,176h6.3c8.2,0,12.4-4.3,12.4-12.5
		c0-10.5-6.5-13.1-11.2-13.1h-7.4V176z"/>
	<path class="st0" d="M470,196.7c-0.3-1.7-0.5-2.6-0.5-3.3c0-0.8,0.7-1.6,1.7-1.6c0.7,0,1.3,0.7,1.7,1.6l3.4,7.2
		c1.3,2.4,4.8,3,7.3,3c11.9,0,14-9.3,14-11.9c0-14.4-26.7-13.2-26.7-30.4c0-9.6,6.5-15.5,18.6-15.5c4.9,0,9.7,1.7,10.7,2.2l0.4,6.7
		c0.1,0.7,0.2,1.5,0.2,2.6c0,1.2-1,1.8-1.6,1.8c-0.9,0-1.3-0.3-1.6-1.3l-1.8-4.9c-0.4-1.3-1.9-3.3-7.7-3.3c-5,0-11.5,2.8-11.5,10
		c0,14,26.2,13.4,26.2,30.3c0,5.7-4.1,17.5-20,17.5c-3.9,0-7.9-0.6-11.4-2.3L470,196.7z"/>
</g>
<rect x="107.8" y="37.7" class="st0" width="5.9" height="201.7"/>
</svg>
