<?xml version="1.0" encoding="utf-8"?>
<!-- Generator: Adobe Illustrator 23.0.2, SVG Export Plug-In . SVG Version: 6.00 Build 0)  -->
<svg version="1.1" id="Layer_1" xmlns="http://www.w3.org/2000/svg" xmlns:xlink="http://www.w3.org/1999/xlink" x="0px" y="0px"
	 viewBox="0 0 54.84 342.76" style="enable-background:new 0 0 54.84 342.76;" xml:space="preserve">
<style type="text/css">
	.st0{fill:#FFFFFF;}
</style>
<g>
	<path class="st0" d="M15.56,299.12l22.4,9.7v5.12l-22.4,9.66V318l16-6.82l-16-6.91V299.12z"/>
	<path class="st0" d="M33.8,279.92h4.16v17.34h-22.4v-16.93h4.16v11.78h4.86v-10.4h4.03v10.4h5.18V279.92z"/>
	<path class="st0" d="M37.96,261.52l-6.24,4.32v0.26v4.51h6.24v5.18h-22.4v-9.7c0-1.98,0.33-3.71,0.99-5.17
		c0.66-1.46,1.6-2.59,2.82-3.38c1.22-0.79,2.66-1.18,4.32-1.18s3.1,0.4,4.3,1.2c1.21,0.8,2.13,1.94,2.77,3.41l7.2-5.02V261.52z
		 M20.79,262.84c-0.67,0.81-1.01,2-1.01,3.55v4.22h7.81v-4.22c0-1.56-0.34-2.74-1.02-3.55c-0.68-0.81-1.64-1.22-2.88-1.22
		C22.43,261.62,21.46,262.03,20.79,262.84z"/>
	<path class="st0" d="M15.56,252.28V242.1c0-2.43,0.46-4.58,1.39-6.45c0.93-1.87,2.23-3.32,3.92-4.35c1.69-1.03,3.65-1.55,5.89-1.55
		c2.24,0,4.2,0.52,5.89,1.55c1.69,1.03,2.99,2.49,3.92,4.35c0.93,1.87,1.39,4.02,1.39,6.45v10.18H15.56z M33.7,242.36
		c0-2.24-0.62-4.03-1.87-5.36c-1.25-1.33-2.94-2-5.07-2c-2.13,0-3.82,0.67-5.07,2c-1.25,1.33-1.87,3.12-1.87,5.36v4.74H33.7V242.36z
		"/>
	<path class="st0" d="M15.56,225.84v-5.18h22.4v5.18H15.56z"/>
	<path class="st0" d="M15.56,193.94l22.4,9.7v5.12l-22.4,9.66v-5.6l16-6.82l-16-6.91V193.94z"/>
	<path class="st0" d="M35.68,189.13c-1.77,1.78-4.3,2.67-7.58,2.67H15.56v-5.18h12.35c4.01,0,6.02-1.66,6.02-4.99
		c0-1.62-0.48-2.86-1.46-3.71c-0.97-0.85-2.49-1.28-4.56-1.28H15.56v-5.12H28.1c3.29,0,5.81,0.89,7.58,2.67
		c1.77,1.78,2.66,4.27,2.66,7.47C38.34,184.85,37.46,187.34,35.68,189.13z"/>
	<path class="st0" d="M37.96,152.12l-6.24,4.32v0.26v4.51h6.24v5.18h-22.4v-9.7c0-1.98,0.33-3.71,0.99-5.17
		c0.66-1.46,1.6-2.59,2.82-3.38c1.22-0.79,2.66-1.18,4.32-1.18s3.1,0.4,4.3,1.2c1.21,0.8,2.13,1.94,2.77,3.41l7.2-5.02V152.12z
		 M20.79,153.43c-0.67,0.81-1.01,2-1.01,3.55v4.22h7.81v-4.22c0-1.56-0.34-2.74-1.02-3.55c-0.68-0.81-1.64-1.22-2.88-1.22
		C22.43,152.21,21.46,152.62,20.79,153.43z"/>
	<path class="st0" d="M15.56,142.87v-10.18c0-2.43,0.46-4.58,1.39-6.45c0.93-1.87,2.23-3.32,3.92-4.35
		c1.69-1.04,3.65-1.55,5.89-1.55c2.24,0,4.2,0.52,5.89,1.55c1.69,1.04,2.99,2.48,3.92,4.35c0.93,1.87,1.39,4.02,1.39,6.45v10.18
		H15.56z M33.7,132.95c0-2.24-0.62-4.03-1.87-5.36c-1.25-1.33-2.94-2-5.07-2c-2.13,0-3.82,0.67-5.07,2
		c-1.25,1.33-1.87,3.12-1.87,5.36v4.74H33.7V132.95z"/>
	<path class="st0" d="M33.8,99.09h4.16v17.34h-22.4V99.51h4.16v11.78h4.86v-10.4h4.03v10.4h5.18V99.09z"/>
	<path class="st0" d="M37.96,80.7l-6.24,4.32v0.26v4.51h6.24v5.18h-22.4v-9.7c0-1.98,0.33-3.71,0.99-5.17
		c0.66-1.46,1.6-2.59,2.82-3.38c1.22-0.79,2.66-1.18,4.32-1.18s3.1,0.4,4.3,1.2s2.13,1.94,2.77,3.41l7.2-5.02V80.7z M20.79,82.01
		c-0.67,0.81-1.01,2-1.01,3.55v4.22h7.81v-4.22c0-1.56-0.34-2.74-1.02-3.55c-0.68-0.81-1.64-1.22-2.88-1.22
		C22.43,80.79,21.46,81.2,20.79,82.01z"/>
	<path class="st0" d="M15.56,71.45v-5.18h22.4v5.18H15.56z"/>
	<path class="st0" d="M15.56,40.41h22.4v4.26l-13.6,11.17h13.6v5.12h-22.4v-4.29l13.6-11.14h-13.6V40.41z"/>
	<path class="st0" d="M26.41,19.96v-4.74h9.09c0.92,1.22,1.62,2.62,2.11,4.22c0.49,1.6,0.74,3.21,0.74,4.83
		c0,2.33-0.5,4.42-1.49,6.27c-0.99,1.86-2.37,3.31-4.13,4.37c-1.76,1.06-3.75,1.58-5.97,1.58c-2.22,0-4.21-0.53-5.97-1.58
		c-1.76-1.06-3.14-2.52-4.13-4.4c-0.99-1.88-1.49-3.99-1.49-6.34c0-1.96,0.33-3.74,0.99-5.34c0.66-1.6,1.62-2.94,2.88-4.03
		l3.07,3.33c-1.69,1.6-2.53,3.53-2.53,5.79c0,1.43,0.3,2.7,0.9,3.81c0.6,1.11,1.44,1.97,2.53,2.59c1.09,0.62,2.34,0.93,3.74,0.93
		c1.39,0,2.62-0.31,3.71-0.93c1.09-0.62,1.94-1.48,2.54-2.58s0.91-2.35,0.91-3.76c0-1.49-0.32-2.84-0.96-4.03H26.41z"/>
</g>
<g>
	<path class="st0" d="M-31.83,83.28l-4.64-6.94l-4.58,6.94h-7.23l8.16-11.33l-7.81-11.07h7.14l4.48,6.46l4.42-6.46h6.85l-7.81,10.82
		l8.32,11.58H-31.83z"/>
</g>
</svg>
