<svg xmlns="http://www.w3.org/2000/svg" width="50.834" height="41.849" viewBox="0 0 50.834 41.849">
  <g id="Group_1776" data-name="Group 1776" transform="translate(-39.797 -402.964)">
    <path id="Path_4866" data-name="Path 4866" d="M519.08,270.313h6.089a1.974,1.974,0,0,1,1.974,1.974V303.25a1.974,1.974,0,0,1-1.974,1.974H479.984a1.975,1.975,0,0,1-1.975-1.974V272.287a1.975,1.975,0,0,1,1.975-1.974h5.327" transform="translate(-437.362 138.739)" fill="none" stroke="#666" stroke-linecap="round" stroke-linejoin="round" stroke-width="1.7"/>
    <line id="Line_105" data-name="Line 105" x2="26.734" transform="translate(51.42 409.052)" fill="none" stroke="#666" stroke-linecap="round" stroke-linejoin="round" stroke-width="1.7"/>
    <line id="Line_106" data-name="Line 106" x2="48.272" transform="translate(41.078 415.948)" fill="none" stroke="#666" stroke-linecap="round" stroke-linejoin="round" stroke-width="1.7"/>
    <rect id="Rectangle_420" data-name="Rectangle 420" width="3.448" height="7.112" transform="translate(51.423 410.925) rotate(180)" stroke-width="1.7" stroke="#666" stroke-linecap="round" stroke-linejoin="round" fill="none"/>
    <rect id="Rectangle_421" data-name="Rectangle 421" width="3.448" height="7.112" transform="translate(81.533 410.925) rotate(180)" stroke-width="1.7" stroke="#666" stroke-linecap="round" stroke-linejoin="round" fill="none"/>
    <path id="Path_4867" data-name="Path 4867" d="M525.652,309.735H485.317V288.817h40.335Z" transform="translate(-440.557 130.649)" fill="none" stroke="#666" stroke-linecap="round" stroke-linejoin="round" stroke-width="1.7"/>
    <line id="Line_107" data-name="Line 107" y1="20.918" transform="translate(49.826 419.466)" fill="none" stroke="#666" stroke-linecap="round" stroke-linejoin="round" stroke-width="1.7"/>
    <line id="Line_108" data-name="Line 108" y1="20.918" transform="translate(54.985 419.466)" fill="none" stroke="#666" stroke-linecap="round" stroke-linejoin="round" stroke-width="1.7"/>
    <line id="Line_109" data-name="Line 109" y1="20.918" transform="translate(60.05 419.466)" fill="none" stroke="#666" stroke-linecap="round" stroke-linejoin="round" stroke-width="1.7"/>
    <line id="Line_110" data-name="Line 110" y1="20.918" transform="translate(65.209 419.466)" fill="none" stroke="#666" stroke-linecap="round" stroke-linejoin="round" stroke-width="1.7"/>
    <line id="Line_111" data-name="Line 111" y1="20.918" transform="translate(69.993 419.466)" fill="none" stroke="#666" stroke-linecap="round" stroke-linejoin="round" stroke-width="1.7"/>
    <line id="Line_112" data-name="Line 112" y1="20.918" transform="translate(75.058 419.466)" fill="none" stroke="#666" stroke-linecap="round" stroke-linejoin="round" stroke-width="1.7"/>
    <line id="Line_113" data-name="Line 113" y1="20.918" transform="translate(80.217 419.466)" fill="none" stroke="#666" stroke-linecap="round" stroke-linejoin="round" stroke-width="1.7"/>
    <line id="Line_114" data-name="Line 114" x2="40.335" transform="translate(44.76 425)" fill="none" stroke="#666" stroke-linecap="round" stroke-linejoin="round" stroke-width="1.7"/>
    <line id="Line_115" data-name="Line 115" x2="40.335" transform="translate(44.76 430.159)" fill="none" stroke="#666" stroke-linecap="round" stroke-linejoin="round" stroke-width="1.7"/>
    <line id="Line_116" data-name="Line 116" x2="40.335" transform="translate(44.76 435.225)" fill="none" stroke="#666" stroke-linecap="round" stroke-linejoin="round" stroke-width="1.7"/>
  </g>
</svg>
