<svg xmlns="http://www.w3.org/2000/svg" width="49.531" height="35.161" viewBox="0 0 49.531 35.161">
  <g id="Group_1673" data-name="Group 1673" transform="translate(1.031 1)">
    <ellipse id="Ellipse_15" data-name="Ellipse 15" cx="4.925" cy="4.925" rx="4.925" ry="4.925" transform="translate(3.571 4.325)" fill="none" stroke="#666" stroke-linecap="round" stroke-linejoin="round" stroke-width="2"/>
    <ellipse id="Ellipse_16" data-name="Ellipse 16" cx="4.925" cy="4.925" rx="4.925" ry="4.925" transform="translate(34.393 4.325)" fill="none" stroke="#666" stroke-linecap="round" stroke-linejoin="round" stroke-width="2"/>
    <ellipse id="Ellipse_17" data-name="Ellipse 17" cx="7.174" cy="7.174" rx="7.174" ry="7.174" transform="translate(16.893)" fill="none" stroke="#666" stroke-linecap="round" stroke-linejoin="round" stroke-width="2"/>
    <g id="Group_1671" data-name="Group 1671" transform="translate(0 16.34)">
      <path id="Path_4861" data-name="Path 4861" d="M106.839,308.051s-1.43-11.28,8.1-11.28a8.668,8.668,0,0,1,7.253,3.365" transform="translate(-106.763 -296.771)" fill="none" stroke="#666" stroke-linecap="round" stroke-linejoin="round" stroke-width="2"/>
    </g>
    <line id="Line_100" data-name="Line 100" y2="4.131" transform="translate(3.613 23.807)" fill="none" stroke="#666" stroke-linecap="round" stroke-linejoin="round" stroke-width="2"/>
    <g id="Group_1672" data-name="Group 1672" transform="translate(32.019 16.34)">
      <path id="Path_4862" data-name="Path 4862" d="M183.965,308.051s1.43-11.28-8.1-11.28a8.7,8.7,0,0,0-7.271,3.365" transform="translate(-168.592 -296.771)" fill="none" stroke="#666" stroke-linecap="round" stroke-linejoin="round" stroke-width="2"/>
    </g>
    <line id="Line_101" data-name="Line 101" y2="4.131" transform="translate(43.855 23.807)" fill="none" stroke="#666" stroke-linecap="round" stroke-linejoin="round" stroke-width="2"/>
    <path id="Path_4863" data-name="Path 4863" d="M130.365,313.6s-2.542-16.523,11.439-16.523,11.28,16.205,11.28,16.205" transform="translate(-118.055 -280.579)" fill="none" stroke="#666" stroke-linecap="round" stroke-linejoin="round" stroke-width="2"/>
    <line id="Line_102" data-name="Line 102" y2="5.402" transform="translate(16.599 27.62)" fill="none" stroke="#666" stroke-linecap="round" stroke-linejoin="round" stroke-width="2"/>
    <line id="Line_103" data-name="Line 103" y2="5.402" transform="translate(31.057 27.62)" fill="none" stroke="#666" stroke-linecap="round" stroke-linejoin="round" stroke-width="2"/>
  </g>
</svg>
