<svg xmlns="http://www.w3.org/2000/svg" width="83.079" height="45.397" viewBox="0 0 83.079 45.397">
  <g id="Group_1" data-name="Group 1" transform="translate(-308.241 -92.707)">
    <g id="Group_1643" data-name="Group 1643" transform="translate(308.385 131.735)">
      <path id="Path_4817" data-name="Path 4817" d="M308.569,187.716v-6.064H311.9v1.07h-2.132v1.35h2v1.07h-2v1.5h2.276l-.127,1.07Z" transform="translate(-308.569 -181.5)" fill="#fff"/>
      <path id="Path_4818" data-name="Path 4818" d="M320.541,187.716v-6.064h1.2v6.064Z" transform="translate(-315.267 -181.5)" fill="#fff"/>
      <path id="Path_4819" data-name="Path 4819" d="M328.156,187.716v-6.064h3.329v1.07h-2.132v1.35h2v1.07h-2v1.5h2.276l-.127,1.07Z" transform="translate(-319.528 -181.5)" fill="#fff"/>
      <path id="Path_4820" data-name="Path 4820" d="M343.049,187.716l-1.834-3.966v3.966h-1.087v-6.064h1.121l1.834,3.966v-3.966h1.087v6.064Z" transform="translate(-326.226 -181.5)" fill="#fff"/>
      <path id="Path_4821" data-name="Path 4821" d="M354.2,187.716v-6.064h1.732a2.27,2.27,0,0,1,1.847.769,3.383,3.383,0,0,1,.641,2.221,3.436,3.436,0,0,1-.675,2.263,2.314,2.314,0,0,1-1.881.811Zm1.716-1.07q1.256,0,1.257-1.987,0-1.936-1.2-1.936H355.4v3.923Z" transform="translate(-334.1 -181.5)" fill="#fff"/>
      <path id="Path_4822" data-name="Path 4822" d="M369.93,187.675a1.978,1.978,0,0,1-1.707-.807,5.041,5.041,0,0,1,.013-4.743,2.026,2.026,0,0,1,1.745-.819,1.978,1.978,0,0,1,1.707.807,5.044,5.044,0,0,1-.013,4.743A2.026,2.026,0,0,1,369.93,187.675Zm.017-1.07a.859.859,0,0,0,.824-.505,5.275,5.275,0,0,0,0-3.227.846.846,0,0,0-.811-.5.859.859,0,0,0-.824.505,5.279,5.279,0,0,0,0,3.227A.845.845,0,0,0,369.947,186.605Z" transform="translate(-341.618 -181.306)" fill="#fff"/>
      <path id="Path_4823" data-name="Path 4823" d="M386.693,187.716v-4.093l-1.147,4.093h-.815l-1.138-4.085v4.085H382.54v-6.064h1.435l1.189,4.45,1.2-4.45h1.4v6.064Z" transform="translate(-349.956 -181.5)" fill="#fff"/>
      <path id="Path_4824" data-name="Path 4824" d="M400.007,184.847a2.04,2.04,0,0,1-1.061-.641,1.758,1.758,0,0,1-.34-1.125,1.67,1.67,0,0,1,.527-1.291,1.976,1.976,0,0,1,1.392-.484,1.84,1.84,0,0,1,1.282.416,2.045,2.045,0,0,1,.577,1.282l-1.138.153a1.46,1.46,0,0,0-.255-.675.623.623,0,0,0-.5-.2.664.664,0,0,0-.51.191.8.8,0,0,0-.178.565.775.775,0,0,0,.136.488.918.918,0,0,0,.467.276l.646.2a2.648,2.648,0,0,1,.832.4,1.433,1.433,0,0,1,.459.59,2.17,2.17,0,0,1,.144.832,1.77,1.77,0,0,1-.522,1.346,1.979,1.979,0,0,1-1.422.5,1.837,1.837,0,0,1-2.021-1.97h1.189a1.345,1.345,0,0,0,.242.756.748.748,0,0,0,.607.238.7.7,0,0,0,.539-.208.855.855,0,0,0,.191-.6.885.885,0,0,0-.157-.552.95.95,0,0,0-.5-.306Z" transform="translate(-358.897 -181.306)" fill="#fff"/>
      <path id="Path_4825" data-name="Path 4825" d="M415.8,187.716v-4.093l-1.147,4.093h-.815l-1.138-4.085v4.085H411.65v-6.064h1.435l1.189,4.45,1.2-4.45h1.4v6.064Z" transform="translate(-366.243 -181.5)" fill="#fff"/>
      <path id="Path_4826" data-name="Path 4826" d="M428.4,187.716v-6.064h3.329v1.07H429.6v1.35h2v1.07h-2v1.5h2.276l-.127,1.07Z" transform="translate(-375.616 -181.5)" fill="#fff"/>
      <path id="Path_4827" data-name="Path 4827" d="M443.089,185.187h-.866V184.2H444.2v2.811a3.2,3.2,0,0,1-1.987.662,2.059,2.059,0,0,1-1.767-.8,3.946,3.946,0,0,1-.594-2.365,4.026,4.026,0,0,1,.594-2.387,2.011,2.011,0,0,1,1.732-.815,1.908,1.908,0,0,1,1.355.463,2.342,2.342,0,0,1,.641,1.405l-1.189.144a1.5,1.5,0,0,0-.3-.713.7.7,0,0,0-.552-.23.824.824,0,0,0-.79.5,3.864,3.864,0,0,0-.246,1.605,3.5,3.5,0,0,0,.281,1.618.954.954,0,0,0,.9.505,1.628,1.628,0,0,0,.807-.2Z" transform="translate(-382.023 -181.306)" fill="#fff"/>
      <path id="Path_4828" data-name="Path 4828" d="M454.2,187.716v-6.064h1.2v4.993h2.132l-.127,1.07Z" transform="translate(-390.048 -181.5)" fill="#fff"/>
      <path id="Path_4829" data-name="Path 4829" d="M465.591,187.716v-6.064h1.2v6.064Z" transform="translate(-396.423 -181.5)" fill="#fff"/>
      <path id="Path_4830" data-name="Path 4830" d="M476.127,187.716l-1.834-3.966v3.966h-1.087v-6.064h1.121l1.835,3.966v-3.966h1.087v6.064Z" transform="translate(-400.683 -181.5)" fill="#fff"/>
      <path id="Path_4831" data-name="Path 4831" d="M489.993,185.187h-.866V184.2h1.979v2.811a3.2,3.2,0,0,1-1.987.662,2.059,2.059,0,0,1-1.767-.8,3.946,3.946,0,0,1-.594-2.365,4.026,4.026,0,0,1,.594-2.387,2.011,2.011,0,0,1,1.733-.815,1.908,1.908,0,0,1,1.354.463,2.342,2.342,0,0,1,.641,1.405l-1.189.144a1.5,1.5,0,0,0-.3-.713.7.7,0,0,0-.552-.23.824.824,0,0,0-.79.5,3.864,3.864,0,0,0-.246,1.605,3.5,3.5,0,0,0,.281,1.618.954.954,0,0,0,.9.505,1.628,1.628,0,0,0,.807-.2Z" transform="translate(-408.266 -181.306)" fill="#fff"/>
    </g>
    <g id="Group_1644" data-name="Group 1644" transform="translate(308.241 111.76)">
      <path id="Path_4832" data-name="Path 4832" d="M308.241,151.5V136.8h3.389a4.273,4.273,0,0,1,3.229,1.184A4.6,4.6,0,0,1,316,141.309a4.956,4.956,0,0,1-1.149,3.489,4.137,4.137,0,0,1-3.2,1.246h-1.318V151.5Zm3.333-7.452q2.334,0,2.335-2.676a2.813,2.813,0,0,0-.574-1.945,2.3,2.3,0,0,0-1.779-.628h-1.224v5.249Z" transform="translate(-308.241 -136.43)" fill="#fff"/>
      <path id="Path_4833" data-name="Path 4833" d="M335.344,151.5l-.866-3.705H330.45l-.866,3.705h-2.109l3.841-14.7h2.41l3.822,14.7Zm-2.88-12.372-1.545,6.67h3.107Z" transform="translate(-319.002 -136.43)" fill="#fff"/>
      <path id="Path_4834" data-name="Path 4834" d="M361.969,151.5l-2.128-5.908c-.176.014-.32.024-.433.031s-.219.011-.32.011H357.9V151.5h-2.089V136.8h3.427a4.48,4.48,0,0,1,3.256,1.132,4.211,4.211,0,0,1,1.167,3.17,4.831,4.831,0,0,1-.508,2.244,3.927,3.927,0,0,1-1.431,1.564l2.5,6.587Zm-2.918-7.863a2.675,2.675,0,0,0,1.921-.587,2.507,2.507,0,0,0,.6-1.863,2.37,2.37,0,0,0-.621-1.8,2.689,2.689,0,0,0-1.9-.587H357.9v4.838Z" transform="translate(-334.857 -136.43)" fill="#fff"/>
      <path id="Path_4835" data-name="Path 4835" d="M381.628,151.5V138.88h-3.163V136.8h8.473v2.079h-3.163V151.5Z" transform="translate(-347.531 -136.43)" fill="#fff"/>
      <path id="Path_4836" data-name="Path 4836" d="M409.767,151.5,405.3,140.836V151.5h-1.921V136.8h2.128l4.462,10.663V136.8h1.921v14.7Z" transform="translate(-361.473 -136.43)" fill="#fff"/>
      <path id="Path_4837" data-name="Path 4837" d="M430.91,151.5V136.8H437.9v2.079h-4.839v4.014h4.519v2.079h-4.519v4.446h5.178l-.283,2.079Z" transform="translate(-376.874 -136.43)" fill="#fff"/>
      <path id="Path_4838" data-name="Path 4838" d="M459.977,151.5l-2.128-5.908c-.176.014-.32.024-.433.031s-.22.011-.32.011H455.91V151.5h-2.09V136.8h3.427a4.484,4.484,0,0,1,3.257,1.132,4.213,4.213,0,0,1,1.167,3.17,4.836,4.836,0,0,1-.508,2.244,3.922,3.922,0,0,1-1.432,1.564l2.5,6.587Zm-2.919-7.863a2.674,2.674,0,0,0,1.92-.587,2.505,2.505,0,0,0,.6-1.863,2.371,2.371,0,0,0-.622-1.8,2.688,2.688,0,0,0-1.9-.587H455.91v4.838Z" transform="translate(-389.692 -136.43)" fill="#fff"/>
      <path id="Path_4839" data-name="Path 4839" d="M480.49,144.255a4.585,4.585,0,0,1-2.24-1.555,4.3,4.3,0,0,1-.715-2.563,4.179,4.179,0,0,1,1.11-3.026,3.9,3.9,0,0,1,2.938-1.153,3.625,3.625,0,0,1,2.693.968,5.122,5.122,0,0,1,1.242,2.964l-2.014.35a4.291,4.291,0,0,0-.706-1.812,1.536,1.536,0,0,0-1.252-.535,1.677,1.677,0,0,0-1.355.556,2.282,2.282,0,0,0,1.035,3.746l1.469.536a5.172,5.172,0,0,1,1.741.977,3.484,3.484,0,0,1,.951,1.41,5.837,5.837,0,0,1,.3,2,4.327,4.327,0,0,1-1.111,3.119,3.9,3.9,0,0,1-2.956,1.163q-4.01,0-4.293-4.59h2.147a3.684,3.684,0,0,0,.631,2.018,1.858,1.858,0,0,0,1.534.638,1.677,1.677,0,0,0,1.375-.6,2.6,2.6,0,0,0,.49-1.688,2.689,2.689,0,0,0-.386-1.534,2.559,2.559,0,0,0-1.271-.9Z" transform="translate(-402.844 -135.959)" fill="#fff"/>
    </g>
    <g id="Group_1645" data-name="Group 1645" transform="translate(308.256 92.707)">
      <path id="Path_4840" data-name="Path 4840" d="M311.4,100.9a4.531,4.531,0,0,1-2.212-1.534,4.243,4.243,0,0,1-.706-2.53,4.126,4.126,0,0,1,1.1-2.987,3.842,3.842,0,0,1,2.9-1.138,3.579,3.579,0,0,1,2.658.955,5.058,5.058,0,0,1,1.226,2.927l-1.988.345a4.245,4.245,0,0,0-.7-1.788,1.516,1.516,0,0,0-1.236-.528,1.655,1.655,0,0,0-1.338.548,2.253,2.253,0,0,0,1.022,3.7l1.45.528a5.112,5.112,0,0,1,1.719.965,3.444,3.444,0,0,1,.939,1.392,5.765,5.765,0,0,1,.3,1.972,4.27,4.27,0,0,1-1.1,3.079,3.847,3.847,0,0,1-2.917,1.148q-3.959,0-4.238-4.532h2.119a3.625,3.625,0,0,0,.623,1.991,1.834,1.834,0,0,0,1.514.63,1.657,1.657,0,0,0,1.357-.589,2.565,2.565,0,0,0,.483-1.666,2.652,2.652,0,0,0-.381-1.514,2.528,2.528,0,0,0-1.255-.884Z" transform="translate(-308.274 -92.707)" fill="#fff"/>
      <path id="Path_4841" data-name="Path 4841" d="M341.493,102.583a6.668,6.668,0,0,1-1.311,3.973,4.175,4.175,0,0,1-6.626-.528,10.877,10.877,0,0,1-1.19-5.66,10.774,10.774,0,0,1,1.237-5.68,3.952,3.952,0,0,1,3.559-1.981,3.543,3.543,0,0,1,2.844,1.219,7.32,7.32,0,0,1,1.394,3.76l-2.119.325a6.434,6.434,0,0,0-.772-2.48,1.615,1.615,0,0,0-1.422-.772q-2.529,0-2.528,5.568t2.584,5.568q1.988,0,2.212-3.312Z" transform="translate(-321.753 -92.707)" fill="#fff"/>
      <path id="Path_4842" data-name="Path 4842" d="M365.647,108.048v-6.482h-4.368v6.482H359.16V93.538h2.119v5.914h4.368V93.538h2.119v14.51Z" transform="translate(-336.745 -93.172)" fill="#fff"/>
      <path id="Path_4843" data-name="Path 4843" d="M393.544,108.048l-.855-3.658h-3.978l-.855,3.658h-2.082l3.792-14.51h2.38l3.773,14.51ZM390.7,95.834l-1.525,6.584h3.067Z" transform="translate(-351.635 -93.172)" fill="#fff"/>
      <path id="Path_4844" data-name="Path 4844" d="M415.428,108.048V93.538h2.119v12.457H422.4l-.279,2.053Z" transform="translate(-368.227 -93.172)" fill="#fff"/>
      <path id="Path_4845" data-name="Path 4845" d="M443.2,108.048l-.855-3.658h-3.978l-.855,3.658h-2.081l3.792-14.51H441.6l3.773,14.51Zm-2.844-12.213-1.524,6.584H441.9Z" transform="translate(-379.417 -93.172)" fill="#fff"/>
    </g>
    <path id="Path_4846" data-name="Path 4846" d="M482.246,105.823l1.865-2.18h-2.293l-.534.63-2.481-4,1.634-1.877.056-.072a3.322,3.322,0,0,0,.413-.78h0a3.189,3.189,0,0,0,.174-.993,3,3,0,1,0-5.974,0,3.218,3.218,0,0,0,.4,1.54l.043.063-.008.005,1.2,1.939-1.206,1.391a4.7,4.7,0,0,0-1.45,3.5,3.638,3.638,0,0,0,3.561,3.436,4.486,4.486,0,0,0,3.523-1.2l.342.552,0,.007.421.69h2.075l-.966-1.383ZM478.1,94.99c.967,0,1.31.841,1.31,1.562a1.654,1.654,0,0,1-.022.247,2.1,2.1,0,0,1-.382.689l-1.129,1.3-.737-1.187-.162-.281a1.541,1.541,0,0,1-.2-.767C476.778,95.831,477.126,94.99,478.1,94.99Zm-.295,11.79a2.13,2.13,0,0,1-1.9-1.358c-.026-.068-.044-.14-.067-.226a1.827,1.827,0,0,1-.033-.23,3.142,3.142,0,0,1,.581-1.916l1.271-1.466,2.6,4.183A2.769,2.769,0,0,1,477.809,106.78Z" transform="translate(-92.791 -0.344)" fill="#fff"/>
  </g>
</svg>
