<svg xmlns="http://www.w3.org/2000/svg" width="58.584" height="53.781" viewBox="0 0 58.584 53.781">
  <g id="Group_1792" data-name="Group 1792" transform="translate(-688.753 -157.218)">
    <path id="Path_5073" data-name="Path 5073" d="M723.286,199.558v1.888a2.414,2.414,0,0,1-2.415,2.415h-28.7a2.414,2.414,0,0,1-2.414-2.415V160.739a2.414,2.414,0,0,1,2.414-2.414h18.955" transform="translate(0 -0.027)" fill="none" stroke="#666" stroke-linecap="round" stroke-linejoin="round" stroke-width="2"/>
    <path id="Path_5074" data-name="Path 5074" d="M718.442,158.218v11.335h12.164Z" transform="translate(-7.32)" fill="none" stroke="#666" stroke-linecap="round" stroke-linejoin="round" stroke-width="2"/>
    <g id="Group_1791" data-name="Group 1791" transform="translate(711.991 188.489)">
      <path id="Path_5075" data-name="Path 5075" d="M749.255,212.146l-21.412-12.12-8.234-1.167,5,6.323,21.653,12.256Z" transform="translate(-719.608 -198.859)" fill="none" stroke="#666" stroke-linecap="round" stroke-linejoin="round" stroke-width="2"/>
      <rect id="Rectangle_473" data-name="Rectangle 473" width="6.279" height="4.976" transform="translate(33.984 15.682) rotate(119.511)" stroke-width="2" stroke="#666" stroke-linecap="round" stroke-linejoin="round" fill="none"/>
      <path id="Path_5076" data-name="Path 5076" d="M751.532,221.228l-2.1,3.81L738.2,218.676" transform="translate(-724.352 -203.915)" fill="none" stroke="#666" stroke-linecap="round" stroke-linejoin="round" stroke-width="2"/>
    </g>
    <line id="Line_184" data-name="Line 184" y1="21.495" transform="translate(723.083 169.36)" fill="none" stroke="#666" stroke-linecap="round" stroke-linejoin="round" stroke-width="2"/>
    <line id="Line_185" data-name="Line 185" x2="21.977" transform="translate(695.1 174.082)" fill="none" stroke="#666" stroke-linecap="round" stroke-linejoin="round" stroke-width="2"/>
    <line id="Line_186" data-name="Line 186" x2="16.579" transform="translate(695.486 179.095)" fill="none" stroke="#666" stroke-linecap="round" stroke-linejoin="round" stroke-width="2"/>
    <line id="Line_187" data-name="Line 187" x2="21.977" transform="translate(695.1 183.914)" fill="none" stroke="#666" stroke-linecap="round" stroke-linejoin="round" stroke-width="2"/>
    <line id="Line_188" data-name="Line 188" x2="16.579" transform="translate(695.486 188.927)" fill="none" stroke="#666" stroke-linecap="round" stroke-linejoin="round" stroke-width="2"/>
  </g>
</svg>
