<svg xmlns="http://www.w3.org/2000/svg" width="46.839" height="44.613" viewBox="0 0 46.839 44.613">
  <g id="Group_1730" data-name="Group 1730" transform="translate(1 1.042)">
    <path id="Path_4907" data-name="Path 4907" d="M227.071,396.355s7.587-1.9,11.38-7.3c1.353-1.925,4.815-11.526,4.815-11.526a4.368,4.368,0,0,1,4.377-1.167c2.772.729,1.021,8.754,1.021,8.754l-2.481,8.462s11.235-3.21,13.423-1.6,0,5.69.292,6.274,1.459,2.48.584,3.94-1.9,2.188-1.6,3.5.119,4.343-.9,5.51-3.261,1.852-3.115,3.02-.292,3.355-1.313,3.939-16.263,1.684-26.476-2.4Z" transform="translate(-215.948 -376.2)" fill="none" stroke="#666" stroke-linecap="round" stroke-linejoin="round" stroke-width="2"/>
    <rect id="Rectangle_439" data-name="Rectangle 439" width="8.228" height="19.842" rx="2.361" transform="translate(0 20.155)" stroke-width="2" stroke="#666" stroke-linecap="round" stroke-linejoin="round" fill="none"/>
  </g>
</svg>
