<svg width="115" height="41" xmlns="http://www.w3.org/2000/svg">
    <title>FINN logo</title>
    <g fill="none" fill-rule="evenodd">
        <path d="M14.056 2.629H3.776c-.641 0-1.162.52-1.162 1.161v32.46c0 .64.52 1.16 1.162 1.16h33.667V25.984c0-12.877-10.492-23.354-23.387-23.354"
              fill="#0063FB"></path>
        <path d="M111.149 2.629h-69.93c-.641 0-1.163.52-1.163 1.161v33.62h71.093c.641 0 1.163-.521 1.163-1.161V3.79c0-.64-.522-1.161-1.163-1.161z"
              fill="#06BEFB"></path>
        <path d="M68.747 13.238c.41 0 .74.331.74.74V26.06a.74.74 0 0 1-.74.74h-2.638a.74.74 0 0 1-.74-.74V13.978a.74.74 0 0 1 .74-.74h2.638zm-7.48 0a.74.74 0 0 1 .74.74v2.32a.74.74 0 0 1-.74.74h-6.039v3.061h4.808a.74.74 0 0 1 .741.74v1.975a.74.74 0 0 1-.74.74h-4.809v2.507a.74.74 0 0 1-.74.74H51.85a.74.74 0 0 1-.74-.74V13.978a.74.74 0 0 1 .74-.74h9.417zm39.25 0a.74.74 0 0 1 .741.74V26.06a.74.74 0 0 1-.74.74h-2.114a.988.988 0 0 1-.827-.447l-4.034-6.15v5.857a.74.74 0 0 1-.74.74h-2.638a.74.74 0 0 1-.74-.74V13.978a.74.74 0 0 1 .74-.74h2.026c.332 0 .641.166.824.442l4.124 6.223v-5.925a.74.74 0 0 1 .74-.74h2.639zm-15.885 0a.74.74 0 0 1 .741.74V26.06a.74.74 0 0 1-.74.74h-2.115a.988.988 0 0 1-.826-.447l-4.034-6.15v5.857a.74.74 0 0 1-.74.74H74.28a.74.74 0 0 1-.741-.74V13.978a.74.74 0 0 1 .74-.74h2.027a.99.99 0 0 1 .824.442l4.124 6.223v-5.925a.74.74 0 0 1 .74-.74h2.638z"
              fill="#FFF"></path>
    </g>
</svg>