<svg xmlns="http://www.w3.org/2000/svg" width="50.625" height="45.036" viewBox="0 0 50.625 45.036">
  <g id="Group_1781" data-name="Group 1781" transform="translate(0.5 0.5)">
    <path id="Path_4869" data-name="Path 4869" d="M108.1,190.889v8.928a2.137,2.137,0,0,1-2.137,2.136h-25.4a2.136,2.136,0,0,1-2.136-2.136V163.794a2.136,2.136,0,0,1,2.136-2.136H97.331" transform="translate(-74.505 -157.918)" fill="none" stroke="#666" stroke-linecap="round" stroke-linejoin="round" stroke-width="1"/>
    <line id="Line_121" data-name="Line 121" y2="9.415" transform="translate(33.59 13.7)" fill="none" stroke="#666" stroke-linecap="round" stroke-linejoin="round" stroke-width="1"/>
    <path id="Path_4870" data-name="Path 4870" d="M101.031,164.791v-6.67a2.1,2.1,0,0,0-2.056-2.136H74.536a2.1,2.1,0,0,0-2.056,2.136v36.022a2.1,2.1,0,0,0,2.056,2.137h1.687" transform="translate(-72.48 -155.984)" fill="none" stroke="#666" stroke-linecap="round" stroke-linejoin="round" stroke-width="1"/>
    <path id="Path_4871" data-name="Path 4871" d="M107.11,161.551v10.03h10.764Z" transform="translate(-84.284 -157.882)" fill="none" stroke="#666" stroke-linecap="round" stroke-linejoin="round" stroke-width="1"/>
    <line id="Line_122" data-name="Line 122" x2="19.327" transform="translate(9.126 18.593)" fill="none" stroke="#666" stroke-linecap="round" stroke-linejoin="round" stroke-width="1"/>
    <line id="Line_123" data-name="Line 123" x2="19.327" transform="translate(9.126 23.73)" fill="none" stroke="#666" stroke-linecap="round" stroke-linejoin="round" stroke-width="1"/>
    <line id="Line_124" data-name="Line 124" x2="19.327" transform="translate(9.126 29.602)" fill="none" stroke="#666" stroke-linecap="round" stroke-linejoin="round" stroke-width="1"/>
    <line id="Line_125" data-name="Line 125" x2="19.327" transform="translate(9.126 34.984)" fill="none" stroke="#666" stroke-linecap="round" stroke-linejoin="round" stroke-width="1"/>
    <g id="Group_1679" data-name="Group 1679" transform="translate(29.825 5.446)">
      <path id="Path_4872" data-name="Path 4872" d="M130.354,169.959,119,188.539l-1.275,7.248,5.74-4.234,11.478-18.789Z" transform="translate(-117.729 -166.193)" fill="none" stroke="#666" stroke-linecap="round" stroke-linejoin="round" stroke-width="1"/>
      <rect id="Rectangle_424" data-name="Rectangle 424" width="5.557" height="4.404" transform="matrix(0.853, 0.521, -0.521, 0.853, 14.871, 0)" stroke-width="1" stroke="#666" stroke-linecap="round" stroke-linejoin="round" fill="none"/>
      <path id="Path_4873" data-name="Path 4873" d="M140.8,173.448l3.308,1.967-5.958,9.75" transform="translate(-124.691 -167.383)" fill="none" stroke="#666" stroke-linecap="round" stroke-linejoin="round" stroke-width="1"/>
    </g>
  </g>
</svg>
