<svg xmlns="http://www.w3.org/2000/svg" width="18.14" height="17.298" viewBox="0 0 18.14 17.298">
  <g id="Group_1817" data-name="Group 1817" transform="translate(-343.233 -64.373)">
    <rect id="Rectangle_354" data-name="Rectangle 354" width="18.14" height="17.298" rx="8.649" transform="translate(361.373 81.671) rotate(180)" fill="#fff"/>
    <path id="Arrow_1_" data-name="Arrow (1)" d="M5.616,9.635v-7.9l3.3,2.684a.73.73,0,0,0,.882,0,.443.443,0,0,0,0-.717L5.433.148a.73.73,0,0,0-.882,0L.183,3.7A.463.463,0,0,0,0,4.057a.518.518,0,0,0,.385.468.732.732,0,0,0,.68-.11l3.3-2.684v7.9a.575.575,0,0,0,.624.507A.575.575,0,0,0,5.616,9.635Z" transform="translate(347.241 67.913)" fill="#d85362"/>
  </g>
</svg>
