<svg id="Group_1659" data-name="Group 1659" xmlns="http://www.w3.org/2000/svg" width="28.738" height="35.493" viewBox="0 0 28.738 35.493">
  <path id="Path_4847" data-name="Path 4847" d="M298.6,646c5.025-.94,10.41,3.331,10.633,8.6.2,4.721.05,9.458.048,14.188a2.119,2.119,0,0,1-.148.463c-2.286,0-4.6.064-6.913-.027-1.126-.045-1.4.342-1.369,1.4.068,2.482.01,4.967.04,7.45a2.707,2.707,0,0,0,.361.887c.185-.3.523-.585.532-.886.052-1.772.027-3.547.029-5.32v-1.326h2.209c0,2.586.111,5.174-.044,7.746a2.6,2.6,0,0,1-3.042,2.173,2.671,2.671,0,0,1-2.384-2.885c-.015-5.992-.007-11.984-.007-17.976q0-6.623,0-13.245C298.546,646.819,298.581,646.4,298.6,646Zm2.368,2.45v18.38h5.908c.064-.149.12-.22.12-.291.015-3.114.039-6.228.027-9.342a19.977,19.977,0,0,0-.173-3.061C306.378,651.182,303.676,648.583,300.966,648.453Z" transform="translate(-280.597 -645.872)" fill="#5f5e5e"/>
  <path id="Path_4850" data-name="Path 4850" d="M284.534,681.33h-2.222V656.276a3.275,3.275,0,0,0-.548-.174c-3.287-.3-4.894-2.037-4.9-5.3,0-1.572,0-3.144,0-4.792H279.2c0,1.576,0,3.1,0,4.622.009,2.37.76,3.126,3.107,3.136.908,0,1.816.022,2.722-.008a2.335,2.335,0,0,0,2.587-2.568c.044-1.689.009-3.379.009-5.163h2.228c0,2.106.148,4.2-.042,6.254a4.271,4.271,0,0,1-4.11,3.753c-1.055.048-1.185.467-1.181,1.365.03,7.495.017,14.991.017,22.486Z" transform="translate(-276.862 -645.896)" fill="#5f5e5e"/>
  <path id="Path_4852" data-name="Path 4852" d="M283.518,645.994H285.6V651.4h-2.087Z" transform="translate(-278.008 -645.893)" fill="#5f5e5e"/>
</svg>
