<svg id="Group_1747" data-name="Group 1747" xmlns="http://www.w3.org/2000/svg" width="129.822" height="35.497" viewBox="0 0 129.822 35.497">
  <path id="Path_4978" data-name="Path 4978" d="M401.367,240.418c.105.3.194.613.319.909a3.47,3.47,0,0,0,2.848,2.312c.131.018.286,0,.334.171a.211.211,0,0,1-.121.254c-1.09.554-1.146,1.6-1.208,2.615-.04.675-.009,1.355-.009,2.032q0,6.91,0,13.819c0,.642.054,1.284.078,1.927a.769.769,0,0,0,.544.722,1.2,1.2,0,0,0,1.769-1.145c.009-3.15,0-6.3.01-9.45,0-.388-.121-.583-.524-.531-.485.061-.641-.181-.6-.625a3.215,3.215,0,0,0,0-.456c-.017-.343.139-.522.484-.476.543.072.661-.192.643-.678a7.115,7.115,0,0,1,.1-1.314,2.2,2.2,0,0,1,1.022-1.615q3.261-2.112,6.493-4.27c.382-.255.582-.205.865.138a2.686,2.686,0,0,0,2.708,1.12,3.906,3.906,0,0,0,1.235-.687c.212-.131.42-.273.61.011s-.089.361-.231.466q-1.813,1.35-3.641,2.68a4.332,4.332,0,0,1-1.121.59,2.139,2.139,0,0,1-2.078-.227c-.33-.236-.68-.445-1.021-.665-.2-.129-.353-.15-.353.161,0,1.3,0,2.608,0,3.912,0,.336.207.4.47.371.461-.046.608.178.565.6a3.131,3.131,0,0,0,0,.507c.02.328-.137.485-.453.448-.5-.058-.589.192-.588.629.013,3.742.008,7.484.008,11.227,0,1.1-.2,1.384-1.235,1.75a2.909,2.909,0,0,0-2.05,1.59,4.073,4.073,0,0,0-.249,1.442c-.008.762-.015,1.525,0,2.286.008.37-.127.508-.5.509s-.562-.1-.56-.512q.015-3.353,0-6.706c0-.174.1-.415-.1-.506-.161-.072-.3.121-.434.215-1.1.765-2.213,1.506-3.273,2.319a1.052,1.052,0,0,1-1.477.043c-.377-.286-.778-.542-1.131-.859a4.174,4.174,0,0,1-1.389-3.259c0-.317,0-.633,0-1.084-.43.495-.767.885-1.108,1.273a11.963,11.963,0,0,1-7.2,4.24,7.7,7.7,0,0,1-3.373-.1,5.1,5.1,0,0,1-3.874-4.244v-2.236a3.523,3.523,0,0,1,3.849-2.686,3.439,3.439,0,0,1,2.107.686c-.024-.334-.053-.551-.051-.768.033-4.042-.087-8.085.066-12.126a3.305,3.305,0,0,1,2.252-3.184,13.266,13.266,0,0,1,2.554-.641,23.874,23.874,0,0,0,5.406-1.318,4.194,4.194,0,0,0,2.211-1.606Zm-13.674,23.213a3.177,3.177,0,0,0,1.653.94,8.053,8.053,0,0,0,5.343-.554,5.211,5.211,0,0,0,3.425-5.234c-.022-1.015-.017-2.03,0-3.044.008-.406-.113-.578-.547-.568q-1.572.037-3.146,0c-.421-.009-.554.134-.549.554.02,1.5.009,3.01,0,4.515a2.78,2.78,0,0,1-.872,2.041,4.98,4.98,0,0,1-2.625,1.226A18.408,18.408,0,0,1,387.693,263.631ZM398.1,249.279h-.014c0-.98.009-1.961,0-2.942a2.07,2.07,0,0,0-4.115-.356c-.042,2.162-.057,4.325-.1,6.487-.007.384.1.55.513.543q1.6-.031,3.195,0c.4.007.533-.147.526-.537C398.094,251.409,398.1,250.343,398.1,249.279Zm-9.558,12.377c-.081-.169.127-.491-.216-.571a.675.675,0,0,0-.76.384,2.159,2.159,0,0,0-.2,1.084c0,.415.218.449.528.341C388.479,262.693,388.5,262.187,388.547,261.656Z" transform="translate(-382.568 -240.418)" fill="#fff"/>
  <path id="Path_4979" data-name="Path 4979" d="M458.954,259.969c0,1.574-.035,3.15.011,4.722a3.654,3.654,0,0,1-1.613,3.207c-1.528,1.141-1.524,1.144-3.056.032-.547-.4-1.1-.793-1.651-1.181-.145-.1-.367-.278-.362.1.026,1.91-.116,3.825.077,5.731a3.06,3.06,0,0,0,1.241,2.3c.063.046.151.127.146.184-.01.128-.14.12-.238.128a3.094,3.094,0,0,1-2.114-.565c-.361-.262-.566-.194-.853.088a6.369,6.369,0,0,1-1.877,1.188,3.662,3.662,0,0,1-1.642.213c-.241,0-.337-.093-.142-.294a3.7,3.7,0,0,0,.87-2.776c-.01-5.146,0-10.292-.008-15.438,0-.912-.048-1.826-.081-2.738-.024-.65-.344-.871-.971-.672a2.674,2.674,0,0,0-.415.189.3.3,0,0,1-.438-.1c-.121-.182.02-.281.136-.376q1.628-1.338,3.257-2.673a.479.479,0,0,1,.6-.058,4.537,4.537,0,0,1,2.184,2.179c.177.436.324.343.593.117.878-.744,1.777-1.463,2.649-2.214a.641.641,0,0,1,.9-.087c.387.272.8.505,1.187.78a3.589,3.589,0,0,1,1.619,3.2C458.922,256.752,458.954,258.361,458.954,259.969Zm-4.595.179h-.007c0-1.691,0-3.383,0-5.074a.849.849,0,0,0-.62-.927,1.027,1.027,0,0,0-1.457,1.063q-.009,4.923,0,9.844c0,.776.334,1.132,1.039,1.141s1.038-.341,1.042-1.125C454.364,263.429,454.359,261.788,454.359,260.148Z" transform="translate(-383.759 -240.618)" fill="#fff"/>
  <path id="Path_4980" data-name="Path 4980" d="M501.1,261.377c0-2.115,0-4.232,0-6.348,0-.867-.4-1.106-1.207-.75a1.267,1.267,0,0,0-.135.071c-.18.1-.35.137-.485-.068s.045-.306.169-.408q1.132-.94,2.271-1.874a8.486,8.486,0,0,0,.744-.613.7.7,0,0,1,1.025-.1,4.52,4.52,0,0,1,2.023,2.2c.131.358.276.176.435.045.927-.764,1.863-1.519,2.777-2.3a.616.616,0,0,1,.812-.09,8.673,8.673,0,0,1,1.706,1.184,3.207,3.207,0,0,1,1.11,2.46c0,3.317.04,6.635.068,9.952a2.845,2.845,0,0,0,.031.556c.134.657.669.851,1.332.531.234-.113.519-.542.764-.119.206.357-.257.442-.457.592-1.04.784-2.1,1.536-3.147,2.32a.606.606,0,0,1-.776.053,4.166,4.166,0,0,1-2.3-2.81A4.819,4.819,0,0,1,507.8,265c-.008-3.251,0-6.5-.017-9.751,0-.952-.5-1.322-1.411-1.1a.8.8,0,0,0-.652.746,5.673,5.673,0,0,0-.019.659q0,6.043,0,12.087c0,.825,0,.826-.85.826-1.032,0-2.065-.019-3.1.008-.489.012-.651-.171-.649-.651.017-2.15.008-4.3.008-6.45Z" transform="translate(-384.766 -240.618)" fill="#fff"/>
  <path id="Path_4981" data-name="Path 4981" d="M438.191,261.59c0,2.082-.013,4.165.009,6.247.006.492-.16.652-.643.641-1.082-.026-2.167-.031-3.25,0-.526.016-.657-.182-.654-.681q.027-5.334.006-10.666c0-.744-.046-1.487-.074-2.231-.027-.719-.382-.933-1.077-.675-.239.088-.531.437-.739.037-.172-.331.234-.44.416-.594.944-.8,1.914-1.563,2.862-2.355a.641.641,0,0,1,.859-.071,4.488,4.488,0,0,1,2.1,2.251c.134.369.3.136.441.022.9-.741,1.814-1.473,2.7-2.239a.7.7,0,0,1,.988-.089c.416.291.861.542,1.265.849a3.543,3.543,0,0,1,1.488,3.011c-.026,3.2,0,6.4.006,9.6a3.394,3.394,0,0,0,.025.557.828.828,0,0,0,1.273.661c.267-.11.586-.62.845-.163.234.413-.34.492-.568.668-.989.768-2.017,1.485-3.02,2.237a.618.618,0,0,1-.775.059,4.134,4.134,0,0,1-2.4-3.963c.06-3.182.01-6.366,0-9.549a.971.971,0,0,0-1.381-1.011c-.494.147-.694.443-.7,1.1-.007,1.964,0,3.928,0,5.892Z" transform="translate(-383.494 -240.618)" fill="#fff"/>
  <path id="Path_4982" data-name="Path 4982" d="M460.733,260.054c0-1.439.014-2.878,0-4.317a2.431,2.431,0,0,1,1.384-2.347,24.466,24.466,0,0,1,2.715-1.133c.994-.388,2-.753,2.994-1.126.189-.072.361-.166.529.077a7,7,0,0,0,2.379,2.024,2.694,2.694,0,0,1,1.424,2.6q-.034,4.089,0,8.176a2.576,2.576,0,0,1-1.634,2.62c-1.84.772-3.706,1.484-5.56,2.224a.344.344,0,0,1-.469-.151,7.456,7.456,0,0,0-2.372-2.034,2.531,2.531,0,0,1-1.4-2.447C460.767,262.832,460.733,261.442,460.733,260.054Zm6.823,1.474h-.01c0-1.405.038-2.811-.011-4.214a4.329,4.329,0,0,0-1.665-3.447c-.14-.109-.3-.272-.5-.164-.179.1-.107.305-.107.466,0,2.5,0,5.011-.006,7.516a8.22,8.22,0,0,0,.1,1.466,4.325,4.325,0,0,0,1.684,2.909c.119.085.252.224.407.149s.1-.272.1-.415C467.558,264.372,467.556,262.951,467.556,261.528Z" transform="translate(-384.04 -240.618)" fill="#fff"/>
  <path id="Path_4983" data-name="Path 4983" d="M473.879,262.038V251.677a5.729,5.729,0,0,1,.107-1.312,2.149,2.149,0,0,1,.951-1.381q3.3-2.152,6.576-4.326c.314-.208.509-.215.748.112a3.191,3.191,0,0,0,1.679,1.17,2.377,2.377,0,0,0,2.089-.494c.244-.156.556-.618.839-.152.251.413-.292.491-.5.653-1.072.826-2.173,1.615-3.268,2.413a4.618,4.618,0,0,1-1.348.695,2.063,2.063,0,0,1-1.891-.239c-.361-.251-.741-.477-1.109-.716-.231-.15-.341-.1-.337.182,0,.152,0,.3,0,.457q0,8.658,0,17.318c0,1.033-.179,1.287-1.15,1.65-.206.078-.413.154-.618.233a2.423,2.423,0,0,0-1.693,2.352c-.026.828-.008,1.658-.016,2.488,0,.377.1.789-.543.784-.625,0-.506-.4-.506-.757q0-5.384,0-10.767Z" transform="translate(-384.288 -240.495)" fill="#fff"/>
  <path id="Path_4984" data-name="Path 4984" d="M488.831,259.623c0-1.185.007-2.37,0-3.556a2.221,2.221,0,0,1,1.376-2.259c1.716-.8,3.393-1.691,5.072-2.572a.885.885,0,0,1,1.012.08c2.676,1.662,2.79,4.835,1.948,7.072a5.172,5.172,0,0,1-4.114,3.377c-.534.106-.79.3-.709.86a2.313,2.313,0,0,1,0,.558c-.2,1.96,1.4,2.422,2.768,2.356a4.175,4.175,0,0,0,1.873-.591c.183-.1.368-.206.52.048.141.235-.041.34-.187.448-1.462,1.07-2.928,2.133-4.387,3.206a.533.533,0,0,1-.65.033c-.609-.332-1.221-.664-1.851-.951a4.547,4.547,0,0,1-2.678-4.609c0-1.168,0-2.336,0-3.5Zm4.583-5.889v.615c0,1.894,0,3.787.008,5.68,0,.274-.149.706.115.789.328.1.512-.314.684-.573a5.514,5.514,0,0,0-.174-5.979A1.26,1.26,0,0,0,493.414,253.734Z" transform="translate(-384.57 -240.619)" fill="#fff"/>
  <path id="Path_4985" data-name="Path 4985" d="M421.2,259.58c0-1.185,0-2.37,0-3.555a2.171,2.171,0,0,1,1.323-2.187c1.758-.835,3.48-1.744,5.208-2.64a.745.745,0,0,1,.835.058c2.826,1.718,2.916,4.966,1.965,7.314a5.132,5.132,0,0,1-4.031,3.2c-.528.1-.8.293-.716.856a2.635,2.635,0,0,1,0,.609c-.173,1.888,1.3,2.352,2.709,2.318a4.071,4.071,0,0,0,1.924-.593c.181-.1.367-.218.523.036s-.062.366-.218.48c-1.448,1.059-2.9,2.108-4.347,3.174a.56.56,0,0,1-.692.022c-.579-.317-1.16-.635-1.76-.9a4.5,4.5,0,0,1-2.731-4.525V259.58Zm4.586-5.939v.7c0,1.909,0,3.818.006,5.727,0,.258-.136.66.112.744.316.106.5-.282.655-.526a5.237,5.237,0,0,0,.531-4.661A3.848,3.848,0,0,0,425.784,253.641Z" transform="translate(-383.296 -240.619)" fill="#fff"/>
  <path id="Path_4986" data-name="Path 4986" d="M414.122,259.946c0-1.728-.012-3.455.008-5.182.006-.455-.126-.672-.6-.611-.423.054-.589-.151-.547-.562a1.875,1.875,0,0,0,0-.406c-.049-.434.122-.648.572-.588s.608-.144.575-.583a2.762,2.762,0,0,1,1.3-2.581c1.509-1.091,2.98-2.234,4.459-3.364.213-.162.369-.189.568.011.233.233.1.385-.08.542a4.725,4.725,0,0,0-1.665,4.071c.025.473.015.949,0,1.423-.011.341.115.49.472.49.248,0,.614-.142.713.2a1.948,1.948,0,0,1-.02,1.2c-.083.224-.357.164-.549.147-.453-.04-.625.12-.622.6.021,3.319.018,6.639.023,9.958,0,.1,0,.2.01.3a.839.839,0,0,0,1.328.734c.238-.113.528-.548.771-.16.259.413-.278.5-.492.66-1.022.781-2.078,1.518-3.109,2.287a.584.584,0,0,1-.731.051,4.075,4.075,0,0,1-2.4-4.013c.073-1.537.015-3.082.015-4.622Z" transform="translate(-383.141 -240.522)" fill="#fff"/>
  <path id="Path_4987" data-name="Path 4987" d="M481.622,264.177v-9.3c0-.7,0-.716-.675-.717-.391,0-.568-.141-.534-.538a2.288,2.288,0,0,0,0-.456c-.049-.453.165-.628.594-.57.5.067.678-.149.618-.631a2.6,2.6,0,0,1,1.267-2.532c1.5-1.1,2.973-2.24,4.451-3.371.214-.164.371-.179.566.022.234.239.084.389-.093.541a4.86,4.86,0,0,0-1.664,4.077c.014.474.016.948,0,1.422-.014.35.124.481.474.48.249,0,.618-.139.711.2a2.035,2.035,0,0,1-.02,1.2c-.078.223-.356.163-.547.147-.443-.036-.628.1-.625.59.023,3.265.014,6.532.021,9.8a2.753,2.753,0,0,0,.074.652.765.765,0,0,0,1.22.572c.152-.074.3-.159.443-.246.168-.1.319-.114.443.06.15.212-.028.308-.159.4q-1.164.858-2.334,1.709-.39.284-.778.57c-.761.558-.754.546-1.537.057A3.946,3.946,0,0,1,481.622,264.177Z" transform="translate(-384.411 -240.522)" fill="#fff"/>
</svg>
