<svg id="Group_1655" data-name="Group 1655" xmlns="http://www.w3.org/2000/svg" width="37.674" height="35.626" viewBox="0 0 37.674 35.626">
  <path id="Path_4848" data-name="Path 4848" d="M75.075,670.438c.411-2.981-.188-5.289-2.593-7.071-3.073-2.275-3.624-5.4-1.776-8.77.3-.55.63-1.085,1.016-1.746l2,1.065c-.43.806-.841,1.547-1.223,2.3a3.713,3.713,0,0,0,1.067,5.051,8.6,8.6,0,0,1,3.907,8.322c-.072.975-.011,1.961-.011,3.072H70.876A21.3,21.3,0,0,1,70,674.874a6.922,6.922,0,0,1-7.866,3.337,6.894,6.894,0,1,1,8.29-8.9c.274.876.628,1.214,1.543,1.141C72.984,670.376,74.007,670.438,75.075,670.438Zm-6.754.021a4.53,4.53,0,0,0-5.394-3.357,4.607,4.607,0,0,0-3.531,4.915,4.7,4.7,0,0,0,4.54,4.158,4.24,4.24,0,0,0,4.24-3.523H63.94v-2.193Z" transform="translate(-57.055 -642.846)" fill="#5f5e5e"/>
  <path id="Path_4849" data-name="Path 4849" d="M88.09,666.5c-.5-1.29-.983-2.578-1.5-3.848a2.72,2.72,0,0,0-2.789-1.783c-1.416.018-2.832,0-4.336,0v-2.486c2.077.129,4.084.135,6.053.415a4.171,4.171,0,0,1,3.093,2.683,24.268,24.268,0,0,1,1.219,3.075c.262.865.672,1.1,1.593,1.086a6.5,6.5,0,0,1,6.4,3.841,6.571,6.571,0,0,1-1.02,7.607,6.878,6.878,0,1,1-9.976-9.458C87.21,667.254,87.634,666.907,88.09,666.5ZM89,668.9a4.478,4.478,0,0,0-1.248,6A4.569,4.569,0,0,0,95.966,671a4.134,4.134,0,0,0-4.711-2.837l1.461,3.962-2.116.843C90.042,671.548,89.542,670.276,89,668.9Z" transform="translate(-60.915 -643.8)" fill="#5f5e5e"/>
  <path id="Path_4851" data-name="Path 4851" d="M79.334,650.242a4.739,4.739,0,1,1,4.759-4.711A4.748,4.748,0,0,1,79.334,650.242Zm.006-2.332a2.4,2.4,0,0,0,2.419-2.384,2.426,2.426,0,1,0-4.852.008A2.411,2.411,0,0,0,79.34,647.91Z" transform="translate(-60.078 -640.764)" fill="#5f5e5e"/>
</svg>
