<svg xmlns="http://www.w3.org/2000/svg" width="18.14" height="17.298" viewBox="0 0 18.14 17.298">
  <g id="Group_1818" data-name="Group 1818" transform="translate(-368.35 -64.373)">
    <rect id="Rectangle_403" data-name="Rectangle 403" width="18.14" height="17.298" rx="8.649" transform="translate(368.35 64.373)" fill="#fff"/>
    <path id="Arrow_1_" data-name="Arrow (1)" d="M5.616,9.635v-7.9l3.3,2.684a.73.73,0,0,0,.882,0,.443.443,0,0,0,0-.717L5.433.148a.73.73,0,0,0-.882,0L.183,3.7A.463.463,0,0,0,0,4.057a.518.518,0,0,0,.385.468.732.732,0,0,0,.68-.11l3.3-2.684v7.9a.575.575,0,0,0,.624.507A.575.575,0,0,0,5.616,9.635Z" transform="translate(382.482 78.131) rotate(180)" fill="#d85362"/>
  </g>
</svg>
