<svg id="Group_1751" data-name="Group 1751" xmlns="http://www.w3.org/2000/svg" width="39.026" height="57.95" viewBox="0 0 39.026 57.95">
  <path id="Path_5001" data-name="Path 5001" d="M242.487,286.925c-.546-.628-1.094-1.253-1.636-1.885-.93-1.086-1.864-2.168-2.78-3.267a1.471,1.471,0,0,0-1.237-.562q-12.435.019-24.87,0a2.125,2.125,0,0,0-1.369.482c-2.071,1.59-4.156,3.159-6.243,4.728-.168.127-.346.39-.583.24-.217-.136-.114-.415-.087-.634a32.109,32.109,0,0,1,7.927-17.387,70.306,70.306,0,0,1,10.84-9.794c2.257-1.719,4.524-3.43,6.692-5.257a6.549,6.549,0,0,0,2.231-7.354,6.867,6.867,0,0,0-6.144-5.036c-.594-.077-.763-.286-.754-.848.026-1.544.012-3.089,0-4.634,0-.3.073-.676-.469-.6-5.262.753-9.166,3.365-11.417,8.276a.9.9,0,0,0,.373,1.307c1.41.994,2.784,2.04,4.166,3.071.157.117.43.205.384.432-.053.267-.337.166-.522.167-3.657.006-7.314-.008-10.97.018-.675,0-.8-.3-.768-.873.4-6.8,3.325-12.121,9.174-15.73a18.073,18.073,0,0,1,9.341-2.81c.838-.013.873.028.875.885,0,1.453.019,2.907-.006,4.36-.01.543.158.75.732.772a13.285,13.285,0,0,1,7.6,23.624c-3.133,2.711-6.608,4.957-9.845,7.523a40.271,40.271,0,0,0-10.121,11.016,16.612,16.612,0,0,0-1.405,3.022c-.063.184-.26.4-.082.564s.379-.05.547-.14c3.077-1.659,6.161-3.309,9.22-5a5.07,5.07,0,0,1,2.576-.689c5.928.032,11.856.016,17.784.017,1.01,0,1.012,0,1.012,1.025q0,5.11,0,10.22v.672Z" transform="translate(-203.635 -228.975)" fill="#fff"/>
</svg>
