<svg xmlns="http://www.w3.org/2000/svg" xmlns:xlink="http://www.w3.org/1999/xlink"
     width="1000" height="1000" viewBox="0 0 1000 1000">
    <defs>
        <svg id="vg" viewBox="0 0 130 130">
            <rect width="130" height="31" fill="#fff"/>
            <path id="Path_5002"
                  d="M692.352,242.463v31.5c-.186,0-.373.013-.558.013H563.119c-.865,0-.866,0-.866-.872V243.388c0-.957,0-.957.969-.957H691.592C691.845,242.432,692.1,242.453,692.352,242.463Zm-94.2,27.822c3.538,0,7.077,0,10.615.007a1.1,1.1,0,0,0,.954-.438c6.274-7.773,12.6-15.507,18.736-23.387.1-.127.3-.242.225-.422s-.3-.11-.459-.11q-9.4-.006-18.794-.009a.876.876,0,0,0-.829.453c-.807,1.274-1.637,2.531-2.451,3.8-2.535,3.944-5.029,7.916-7.719,11.76-.335.479-.381.477-.692.008q-.1-.149-.191-.3-4.751-7.541-9.491-15.09a1.177,1.177,0,0,0-1.138-.636c-6.265.018-12.529.011-18.794.012-.118,0-.236,0-.355,0-.284.008-.33.127-.157.344.063.079.128.157.191.236q9.369,11.661,18.731,23.326a1.1,1.1,0,0,0,.951.448C591.045,270.28,594.6,270.285,598.157,270.285Zm59.609,0v.007q10.136,0,20.271,0a5.125,5.125,0,0,0,5.259-5.27q.012-3.354.023-6.706c0-.9,0-.9-.9-.9H658.79c-.135,0-.271.006-.406,0-.319-.006-.463.149-.459.466.006.525.018,1.051,0,1.575-.017.42.156.568.571.561,1.134-.018,2.268-.006,3.4-.006q2.387,0,4.775,0c.283,0,.576,0,.576.389a21.126,21.126,0,0,1-.166,4.859,3.237,3.237,0,0,1-3.027,2.414q-6.554.007-13.108,0a3.133,3.133,0,0,1-3.03-3.063c0-3.963.006-7.926-.007-11.889a8.711,8.711,0,0,1,.222-2.011,3.111,3.111,0,0,1,2.518-2.071q6.6-.015,13.209,0a2.947,2.947,0,0,1,2.5,1.106,4.333,4.333,0,0,1,.755,1.594c.194.771.2.771,1.016.771h13.972c1.178,0,1.165,0,1.072-1.173a5.269,5.269,0,0,0-5.474-5.036c-11.432.066-22.863.028-34.295.028-.3,0-.61.012-.913-.012a33.625,33.625,0,0,0-6.134.138,4.831,4.831,0,0,0-2.692.778A4.579,4.579,0,0,0,631.8,250.5c-.035,5.045-.035,10.091-.1,15.136a4.395,4.395,0,0,0,2.952,4.139,8.708,8.708,0,0,0,2.887.507Q647.655,270.283,657.766,270.285Z"
                  transform="translate(-562.253 -242.431)" fill="#d12226"/>
        </svg>
        <svg id="e_24" viewBox="0 0 130 130">
            <path id="Path_5041"
                  d="M535.174,327.911h47.351v39.212c-.164.009-.328.026-.492.026q-22.846,0-45.69,0c-.349,0-.7-.063-1.115-.1v-1.576q0-17.918,0-35.837C535.226,329.058,535.192,328.484,535.174,327.911Zm3.292,35.945h28.45V357.75h-19.9c2.6-3.357,5.087-6.416,7.4-9.6a10.464,10.464,0,0,0-6.326-16.664c-2.9-.55-5.974-.234-8.97-.269-.216,0-.62.342-.625.534-.048,1.87-.029,3.742-.029,5.713,2.417,0,4.631-.04,6.845.011a4.051,4.051,0,0,1,4.217,4.191,7.92,7.92,0,0,1-2.185,5.475c-2.689,3.315-5.5,6.535-8.24,9.808a2.219,2.219,0,0,0-.616,1.148C538.43,359.978,538.466,361.864,538.466,363.856Zm40.758-32.635h-6.162v3.873c0,5.171-.012,10.341.025,15.512,0,.388.33,1.1.531,1.107,1.865.086,3.736.051,5.606.051Zm-12.317,20.488V339.771c-2.743,4.083-5.324,7.925-8.019,11.937Zm6.169,12.16h6.111V357.7c-1.869,0-3.626-.024-5.381.026-.248.007-.692.367-.7.574C573.053,360.133,573.075,361.964,573.075,363.868Z"
                  transform="translate(-504.84 -327.911)" fill="#d12226"/>
            <path id="Path_5042"
                  d="M504.258,327.911h26.881V367.04H504.258Zm9.456,29.822c0-1.987.06-3.787-.022-5.582-.05-1.1.244-1.5,1.421-1.473,3.819.076,7.639.03,11.46.026.438,0,.875-.038,1.324-.06v-6.291H513.8v-6.875h14.124v-6.252H507.514v32.665h20.405v-6.158Z"
                  transform="translate(-504.258 -327.911)" fill="#5d5f5d"/>
            <path id="Path_5043"
                  d="M538.529,363.918c0-1.992-.035-3.878.028-5.759a2.218,2.218,0,0,1,.616-1.148c2.742-3.273,5.55-6.492,8.24-9.808a7.92,7.92,0,0,0,2.185-5.475,4.051,4.051,0,0,0-4.217-4.191c-2.214-.051-4.428-.011-6.845-.011,0-1.971-.019-3.843.029-5.713,0-.191.409-.537.625-.534,3,.035,6.066-.282,8.97.269a10.464,10.464,0,0,1,6.326,16.664c-2.316,3.184-4.8,6.243-7.4,9.6h19.9v6.106Z"
                  transform="translate(-504.903 -327.973)" fill="#fff"/>
            <path id="Path_5044"
                  d="M579.952,331.284v20.543c-1.87,0-3.741.035-5.606-.051-.2-.009-.528-.719-.531-1.107-.036-5.171-.025-10.341-.025-15.512v-3.873Z"
                  transform="translate(-505.568 -327.975)" fill="#fff"/>
            <path id="Path_5045" d="M567.362,351.936h-8.019c2.7-4.012,5.276-7.854,8.019-11.937Z"
                  transform="translate(-505.296 -328.139)" fill="#fff"/>
            <path id="Path_5046"
                  d="M573.8,364.44c0-1.9-.022-3.734.032-5.562.006-.207.449-.567.7-.574,1.754-.05,3.512-.026,5.381-.026v6.163Z"
                  transform="translate(-505.568 -328.483)" fill="#fff"/>
            <path id="Path_5047"
                  d="M513.777,357.8h14.2v6.158H507.576V331.29h20.409v6.252H513.861v6.875h14.1v6.291c-.449.022-.887.059-1.325.06-3.821,0-7.641.05-11.46-.026-1.176-.023-1.471.371-1.421,1.473C513.837,354.01,513.777,355.81,513.777,357.8Z"
                  transform="translate(-504.321 -327.975)" fill="#fff"/>
        </svg>
        <svg id="aftenposten" width="310px" viewBox="0 0 907.99988 906.99988">
            <path id="path2"
                  style="fill:#231f20;fill-rule:evenodd"
                  d="M 332.07,26.0597 C 407.8899,4.9997 489.2199,4.7398 565.3001,24.7198 l 0.6899,0.3901 c 3.32,0.6199 6.5299,1.6698 9.7401,2.7 0.08,-0.4499 0.2299,-1.3499 0.3099,-1.8 0.0601,0.53 0.17,1.5998 0.2301,2.1398 2.6198,0.3501 5.15,1.15 7.6298,2.0702 0.54,0.1301 1.6302,0.39 2.1702,0.5198 9.6899,3.2701 19.33,6.6703 28.8598,10.4001 3.02,1.2299 6.05,2.48 9.1001,3.6901 11.0899,4.75 22.06,9.8201 32.7401,15.4401 72.5698,37.62 134.1598,95.76 176.4199,165.67 0.9901,1.6798 1.98,3.3698 2.9899,5.0499 4.5601,7.8001 8.7801,15.7799 12.9402,23.8 3.0399,6.0599 5.9099,12.2 8.7698,18.35 3.3701,7.8699 6.8601,15.7 9.76,23.77 0.8101,2.0401 1.62,4.1 2.4301,6.1599 0.5199,1.6801 1.0999,3.3599 1.6801,5.0301 1.5999,3.93 2.85,7.9999 4.0099,12.0901 1.19,3.2099 2.2,6.4899 3.1901,9.7798 0.3099,1.0502 0.61,2.1002 0.9199,3.16 23.0499,80.82 22.9799,168.23 -1.01,248.83 -0.62,2.31 -1.3099,4.6001 -2.0401,6.88 -0.3799,1.0202 -0.76,2.0401 -1.15,3.06 -0.11,0.54 -0.3399,1.62 -0.4499,2.16 -1.18,3.2701 -2.12,6.62 -3.49,9.83 -0.15,0.5202 -0.4601,1.58 -0.61,2.1101 -0.51,1.26 -0.9899,2.5299 -1.4599,3.8101 -0.53,1.4297 -1.0601,2.8697 -1.58,4.3097 -17.5201,46.2402 -42.7802,89.5301 -74.55,127.4202 -45.2302,54.36 -103.5902,97.7496 -168.74,125.2701 -5.2101,2.1501 -10.3901,4.3597 -15.69,6.2699 -3.42,1.2898 -6.84,2.5699 -10.2901,3.78 -0.9601,0.3297 -1.9199,0.6701 -2.87,1.0199 -1.0299,0.3501 -2.0501,0.7002 -3.07,1.0503 -0.9499,0.3197 -1.9,0.65 -2.84,0.9799 -2.0599,0.6398 -4.14,1.2597 -6.2099,1.87 -2.4701,0.8898 -4.96,1.7397 -7.56,2.0801 -0.0601,0.5 -0.18,1.4899 -0.2401,1.9899 -0.0799,-0.4104 -0.24,-1.2302 -0.32,-1.6398 -78.9199,23.2497 -164.3601,23.6698 -243.6199,1.7294 -8.7701,-2.4097 -17.4402,-5.1296 -26.0601,-8.0198 -8.0801,-2.88 -16.0999,-5.9 -24.0599,-9.1001 -2.05,-0.8699 -4.0901,-1.7399 -6.1302,-2.5897 -8.78,-3.6904 -17.3199,-7.88 -25.9098,-11.9999 C 212.07,834.88 176.7501,810.4 145.8499,781.1597 123.88,760.75 104.25,737.86 86.8102,713.4797 c -2.4001,-3.67 -5.0205,-7.1699 -7.4404,-10.8198 -3.4801,-5.2401 -6.8199,-10.5701 -10.1299,-15.91 C 52.2198,658.4998 38.3499,628.38 27.83,597.13 c -0.3198,-1.0502 -0.65,-2.1002 -1.01,-3.13 -0.1502,-0.5102 -0.4598,-1.5503 -0.6199,-2.0602 -0.8604,-2.31 -1.6002,-4.6599 -2.1802,-7.0501 C 22.9,581.62 21.92,578.2898 21.0302,574.9498 18.3101,565.38 16.1101,555.6699 14.0601,545.94 13.2398,542.31 12.6802,538.6297 12.0101,534.9699 2.6198,482.8898 2.63,429.1098 11.9999,377.03 c 0.25,-1.3102 0.5,-2.6002 0.7398,-3.89 -0.1397,0.04 -0.4294,0.1199 -0.5796,0.1698 1.0797,-1.23 0.9898,-2.9398 1.3399,-4.4201 2.5999,-13.0898 5.7501,-26.0699 9.5102,-38.88 0.2597,-0.7299 0.7796,-2.1897 1.05,-2.9199 0.5295,-2.3899 1.2699,-4.72 2.0296,-7.0399 0.3801,-1 0.7602,-2.0001 1.15,-2.99 0.1301,-0.5502 0.3801,-1.6599 0.5102,-2.2201 0.3501,-0.9498 0.6999,-1.8898 1.0398,-2.84 0.8904,-2.4999 1.8102,-4.9898 2.8499,-7.4299 -0.3296,-0.2401 -1,-0.7299 -1.3396,-0.9799 0.5998,-0.3702 1.2101,-0.72 1.83,-1.0503 13.6199,-36.8498 31.9397,-71.9699 54.6801,-104.0198 17.4299,-24.4001 37.0797,-47.2601 59.0397,-67.7002 30.92,-29.1999 66.2102,-53.7397 104.11,-73.0298 12.42,-6.1401 25.02,-11.9199 37.9202,-16.9801 3.1099,-1.1401 6.1798,-2.41 9.2999,-3.5399 2.3,-0.79 4.6001,-1.5701 6.8301,-2.55 0.5099,-0.1199 1.5298,-0.3699 2.05,-0.4901 4.18,-1.7198 8.5898,-2.8299 12.8599,-4.33 4.3801,-1.2699 8.7299,-2.69 13.15,-3.8401 z"/>
            <path id="path4"
                  style="fill:#ffffff;fill-rule:evenodd"
                  d="m 546.0401,131.19 c -4.8002,2.6897 -9.8901,4.7698 -14.91,6.98 -14.26,5.87 -29.09,10.2299 -44.0702,13.86 -26.07,6.4199 -52.7599,9.6599 -79.1198,14.6097 l -0.7801,0.4902 c -1.73,0.25 -3.45,0.5 -5.15,0.8399 -2.6901,0.6499 -5.36,1.3101 -8.0101,2.0602 -11.5699,3.0897 -22.8799,7.5299 -32.9499,14.0598 -11.8701,7.5501 -20.9501,19.4701 -24.7199,33.05 -3.9702,12.56 -2.9401,25.8602 -3.0602,38.8301 -0.0499,78.4899 0.0901,156.9901 -0.08,235.4899 -3.1099,-2.73 -5.7999,-5.98 -9.39,-8.1 -10.0698,-6.2201 -22.1998,-7.8999 -33.8499,-7.7899 -17.2401,-0.0901 -35.1301,3.7599 -49.2101,14.15 -10.15,7.7499 -17.2,18.9899 -20.8199,31.1598 -0.3299,1.37 -0.6701,2.7403 -1.0499,4.1103 -2.5501,10.8297 -2.7201,22 -2.2201,33.0599 1.2401,15.15 4.5,30.3599 11.5401,43.9398 7.0999,14.5401 18.32,26.9703 31.8498,35.8101 16.0002,10.5302 34.8701,16.13 53.86,17.7602 4.3302,0.2999 8.7001,0.01 13.0101,0.6299 14.8201,-0.37 29.6799,-1.3799 44.1499,-4.83 22.6701,-4.97 44.39,-14.04 64.1002,-26.2701 15.8499,-9.65 30.2,-21.52 43.7099,-34.1901 2.6799,-2.6699 5.33,-5.3699 8.0501,-7.9999 11.96,-12.64 23.04,-26.0498 33.84,-39.6898 0.8099,18.5898 -2.2002,37.87 4.0598,55.8099 2.7301,7.9299 6.9202,15.3499 12.1501,21.9101 11.3599,14.4099 27.0499,24.5798 43.0501,33.1497 1.1398,0.47 2.5398,1.8601 3.7199,0.6401 31.6001,-21.5901 63.0901,-43.34 94.7599,-64.8099 -2.4698,-3.92 -4.9799,-7.8001 -7.48,-11.7 -6.7298,5.1899 -13.5698,10.6299 -21.8398,13.1 -3.4101,0.2999 -6.8301,0.29 -10.23,0.04 -4.5102,-1.51 -8.2202,-4.5902 -10.7501,-8.5901 -1.7501,-4.0799 -3.9699,-8.21 -3.8999,-12.7698 0.0198,-115.34 0,-230.69 0.0198,-346.03 -0.1,-10.8902 1.73,-22.0102 6.6802,-31.79 4.0898,-7.7 10.3799,-15.2402 19.3498,-17.03 0,-1.9202 0,-3.8401 0.04,-5.7501 -6.1699,-0.4802 -12.42,-0.86 -18.3898,-2.6101 -0.5301,-0.1298 -1.5701,-0.3901 -2.1002,-0.5199 -1.29,-0.4901 -2.5599,-0.9502 -3.8398,-1.4202 -17.5402,-6.7498 -30.7,-21.8698 -38.2002,-38.77 -1.9698,-4.5799 -3.6298,-9.2797 -4.9099,-14.0998 -0.5499,-2.1401 -0.76,-4.3401 -0.7801,-6.5401 -1.73,-0.03 -3.46,-0.0601 -5.1798,-0.03 -7.5302,11.4001 -19.0102,19.51 -30.95,25.7902 z M 446.65,190.6798 c 10.0001,-9.22 24.02,-13.4699 37.4701,-11.8701 3.0098,0.61 6.0499,1.1401 9.0099,1.98 0.97,0.3501 1.9499,0.6903 2.9401,1.0202 12.88,4.93 23.86,16.92 24.1599,31.21 0.11,46.44 0.0301,92.88 0.04,139.33 -28.29,0.01 -56.59,0.03 -84.88,-0.01 -0.0199,-45.7999 0,-91.5899 -0.01,-137.3799 -0.0901,-9.29 4.7801,-17.93 11.27,-24.2802 z m -11.27,200.77 c 28.3,-0.03 56.6,-0.03 84.8999,0 -0.01,23.84 0.0102,47.67 -0.01,71.5102 0.0899,18.87 -3.82,37.98 -12.92,54.6299 -9.3699,17.71 -24.0999,32.3399 -41.36,42.4099 -23.48,13.9201 -51.0101,19.55 -78.05,20.31 -19.66,0.4501 -40.03,-1.5401 -57.86,-10.44 -7.3499,-3.96 -14.7401,-8.8398 -19.01,-16.2301 15.31,3.9802 31.3699,2.9002 46.98,1.7102 18.5599,-2.23 37.44,-7.1901 52.64,-18.5202 6.58,-5.1298 12.4299,-11.34 16.5699,-18.6097 5.7501,-10.3901 8.1802,-22.3702 8.1301,-34.1802 -0.01,-30.8599 0,-61.73 -0.01,-92.59 z m -123.1001,122.8 c 4.1301,-7.4398 13.75,-10.1699 21.6102,-7.67 -0.4102,9.4201 1.4099,19.33 -2.1702,28.33 -1.15,3.31 -4.1499,5.33 -6.7099,7.4801 -0.25,0.01 -0.76,0.03 -1.0199,0.04 -4.4802,2.4899 -9.7401,2.2901 -14.7002,2.3601 0.61,-10.1602 -1.87,-21.0901 2.99,-30.5402 z"/>
            <path id="path6"
                  style="fill:#ffffff;fill-rule:evenodd"
                  d="m 281.9599,678.5198 c -3.7298,4.43 -9.5099,6.1101 -14.86,7.66 -1.34,0.26 -2.67,0.55 -3.9799,0.91 -7.2799,1.7402 -15.6401,1.2801 -21.6501,6.3802 -3.14,2.4797 -3.8498,6.7198 -3.75,10.4998 0.1001,14.69 -0.0899,29.38 0.11,44.0699 -6.3199,-4.344 -16.3854,-3.0537 -20.1181,3.7188 -2.0613,3.7409 -1.6696,11.2088 -0.089,14.9689 1.4346,3.4149 3.8209,6.3383 6.7471,8.6826 5.8501,3.2598 12.7502,3.7499 19.2401,2.5097 10.7099,-2.2498 20.3,-9.0898 26.5099,-18.0297 0.5202,-0.29 1.5701,-0.8703 2.09,-1.1602 0.0102,2.9602 -0.2098,5.97 0.39,8.9002 1.55,4.97 5.9602,8.3999 10.4602,10.62 5.8898,-3.02 11.0199,-7.6402 16.6699,-11.1901 0.15,9.2999 -0.1199,18.62 0.15,27.9199 0.7101,0.1601 2.13,0.4802 2.84,0.64 0.33,-5.2398 -0.72,-10.6801 1.0999,-15.73 1.87,-4.07 6.6311,-4.3582 10.3901,-6.51 1.0743,-0.6151 1.3924,-1.8689 1.3861,-3.0748 -0.0759,-14.7078 -0.1046,-29.4069 -0.0161,-44.1153 0.9601,0.0202 2.87,0.0502 3.8301,0.07 0,-1.69 0.01,-3.3797 0.0298,-5.0598 -1.3,0.01 -2.59,0.0301 -3.8798,0.0499 -0.0402,-5.7498 -0.0802,-11.4999 0,-17.24 3.1499,1.5701 5.8598,4.35 9.47,4.7401 6.27,-0.55 10.4698,-5.8 15.4899,-8.9799 1.7799,-1.7901 5.4899,-2.63 5.1401,-5.7002 -2.8202,1.37 -5.29,4.0802 -8.68,3.7001 -3.7601,-0.01 -6.5001,-2.9501 -8.7602,-5.58 -7.4199,4.9399 -14.9799,9.68 -22.42,14.5899 -1.91,1.29 -3.9399,2.66 -5.08,4.7401 -1.15,3.09 -0.9998,6.41 -0.9799,9.6599 -1.3601,0.0201 -2.71,0.0502 -4.0499,0.0901 0.0199,1.6699 0.0298,3.3401 0.04,5.0301 1.3498,-0.03 2.7,-0.03 4.06,-0.03 -0.03,12.2297 0.0298,24.4697 -0.0201,36.6998 0.1899,4.6701 -8.67,5.1001 -8.89,0.3802 -0.1001,-21.1102 -0.04,-42.23 -0.04,-63.3402 -0.21,-4.1199 1.6501,-8.06 5.3,-10.0998 -6.5101,-0.2002 -11.9699,-5.2101 -12.9099,-11.6102 -0.32,0.0502 -0.9601,0.1701 -1.2702,0.22 z m 62.2602,21.7 c -2.5101,1.8202 -4.97,3.6902 -7.38,5.6299 -2.6002,2.05 -5.3201,3.96 -7.8401,6.1101 -2.55,2.3701 -2.0999,6.1702 -2.2201,9.33 -1.3699,-0.01 -2.73,-0.01 -4.0898,0 0.0199,1.7002 0.0298,3.41 0.0499,5.1202 1.3501,-0.0201 2.7,-0.0301 4.0601,-0.0201 0.1199,13.2499 -0.11,26.5098 0.1199,39.7601 0.2001,5.6798 4.71,9.6999 9.2701,12.3599 4.8498,-3.49 9.61,-7.12 14.6098,-10.4 -0.1698,-0.3501 -0.4899,-1.0599 -0.6599,-1.41 -2.3599,1.7099 -6.19,2.99 -7.5901,-0.5499 0.0601,-13.2301 0.0301,-26.4702 0.0301,-39.7 1.5199,-0.0502 3.06,-0.0502 4.5901,-0.0701 0.0199,-1.6599 0.04,-3.3301 0.07,-4.9802 -1.55,-0.0498 -3.1002,-0.0997 -4.64,-0.1099 -0.0201,-6.13 -0.6301,-12.5898 2.45,-18.1698 1.3799,-1.59 2.8698,-3.0702 4.46,-4.43 -0.3401,-0.4102 -1.0202,-1.2303 -1.3601,-1.6401 -1.3101,1.0499 -2.6101,2.12 -3.9299,3.1699 z m 78.95,15.0001 c -4.5,2.7701 -8.1601,6.67 -12.3302,9.8898 -1.4598,-4.2998 -4.7899,-7.5798 -8.7599,-9.6298 -3.1799,0.7101 -5.2699,3.92 -7.9599,5.7101 -1.91,2.1798 -6.02,3.1898 -5.8802,6.59 1.2501,-0.79 2.5001,-1.5401 3.7301,-2.3502 0.5099,0.1 1.5301,0.3101 2.05,0.4101 0.3101,0.5001 0.94,1.4998 1.2501,1.9999 0.0598,16.3202 -0.15,32.6401 0.1199,48.9501 5.0899,-0.15 10.18,-0.0899 15.2699,-0.08 0.0202,-15.2501 0.0202,-30.49 0,-45.7401 -0.0598,-1.55 0.3802,-3.0098 0.8102,-4.4498 2.3298,-1.2101 4.8299,-1.1801 7.09,0.1899 0.5899,13.4399 -0.0102,26.9098 0.2999,40.36 0.5899,5.36 5.1001,9.3299 9.9201,11.1401 4.57,-3.5002 9.18,-6.9602 13.9099,-10.2501 -0.1,-0.3999 -0.2999,-1.1899 -0.4,-1.5899 -1.8501,1.0298 -4.0399,3.1399 -6.2101,1.8 -1.6098,-0.7302 -1.5698,-2.6201 -1.6699,-4.0901 -0.04,-12.0101 0.0499,-24.02 -0.01,-36.0301 0.3246,-5.6469 -6.2544,-11.4253 -11.23,-12.8299 z M 354.74,725.8198 c -2.6699,1.23 -3.3899,4.43 -3.3001,7.1102 0.0502,9.0498 -0.03,18.0898 0.04,27.14 -0.1698,2.8899 1.0701,5.54 2.1101,8.1598 2.0999,2.66 4.72,4.8501 7.6,6.6299 2.4301,1.0701 4.8401,2.2201 7.12,3.5901 5.73,-4.1998 11.5501,-8.28 17.2599,-12.4999 0.0802,-0.47 0.25,-1.4199 0.33,-1.8902 -4.94,2.8202 -11.0299,4.4303 -16.2899,1.3703 -2.8599,-3.2601 -2.3301,-7.6802 -2.2501,-11.6801 4.53,-1.0401 9.3501,-2.2499 12.7,-5.7102 5.5401,-5.0998 7.1201,-13.3798 5.7501,-20.5497 -0.9901,-5.3802 -4.9399,-9.7702 -9.75,-12.1201 -7.2199,3.24 -14.4,6.6101 -21.32,10.4499 z m -98.3001,-28.7399 c 1.2101,-7.0702 13.1701,-7.92 15.19,-0.9601 0.3402,9.0099 0.07,18.0502 0.1202,27.0799 -5.1001,0.0902 -10.2101,-0.0598 -15.3201,0.1001 -0.08,-8.7401 -0.15,-17.4798 0.01,-26.2199 z m 110.9701,26.82 c 8.1701,6.5101 8.28,20.56 0.1701,27.25 -0.5,-9.07 -0.2602,-18.1701 -0.1701,-27.25 z m -111.09,6.41 c 5.18,0.01 10.3601,-0.0301 15.5401,0.04 -0.2801,6.2699 0.2599,12.5798 -0.4601,18.8399 -2.0599,6.7402 -7.5101,11.84 -14.0799,14.1301 -5.5432,1.3669 -11.4838,1.5783 -17.0728,0.4042 -1.9556,-0.4104 -5.614,-1.311 -5.8873,-3.6842 5.9301,0.6999 12.46,0.2699 17.49,-3.2499 2.38,-1.54 3.43,-4.2701 4.5,-6.76 0.04,-6.5702 0.0301,-13.1503 -0.03,-19.7201 z m -18.58,20.7099 c -0.0513,5.1866 1.0497,6.1319 -4.3801,7.56 -0.9986,-3.615 -0.547,-6.7521 4.3801,-7.56 z"/>
            <path id="path8"
                  style="fill:#ffffff;fill-rule:evenodd"
                  d="m 460.01,725.0899 c -1.51,-4.46 -5.1599,-7.5501 -9.0201,-9.9799 l -14.3623,11.3351 0.5924,1.2649 c 2.2799,-1.37 5.25,-3.28 7.24,-0.36 l -0.2753,70.4327 c -0.009,2.3454 -2.7331,5.3339 -4.0748,7.2972 5.98,-0.4799 11.49,-3.3199 15.6901,-7.5402 2.5401,2.7701 6.3,3.5102 9.9099,3.1003 -2.7598,-1.94 -4.9598,-4.8002 -5.2999,-8.2301 -0.6699,-7.45 0.3001,-14.9601 -0.6299,-22.3801 4.5998,1.98 8.3599,5.4901 12.2998,8.53 3.85,-2.1399 8.1,-4.2999 10.37,-8.2698 1.6302,-2.8301 1.1602,-6.19 1.2401,-9.2903 C 483.55,749.7 483.8199,738.4 483.5599,727.1198 483.34,721.37 477.04,717.6124 473.01,714.5325 Z m 35.9699,-2.2901 c -3.2998,1.2501 -6.7799,3.9299 -6.55,7.85 -0.0499,11.34 -0.1899,22.7001 0.07,34.0401 1.2201,5.1899 7.2601,6.66 10.77,10.0301 1.0301,1.2197 2.0602,2.45 3.0401,3.7397 7.67,-2.8499 15.56,-5.3897 22.7101,-9.4399 4.1598,-2.05 3.56,-7.1799 3.56,-11.0299 -0.2401,-10.0601 0.33,-20.1501 -0.28,-30.17 -2.99,-5.5601 -10.2501,-7.02 -13.47,-12.5501 -6.6801,2.3301 -13.28,4.9 -19.8502,7.53 z m 9.5902,1.04 c 5.54,2.2802 8.2899,8.4402 8.25,14.1602 -0.0502,10.66 0.17,21.3199 -0.1602,31.9799 -5.1398,-2.6501 -8.06,-8.3299 -8.0898,-14 -0.0901,-10.7201 -0.1001,-21.4299 0,-32.1401 z M 460.48,727.49 c 1.2401,-2.8902 4.97,-2.05 7.1801,-0.8102 l -8e-4,40.2755 c 0,1.6643 -2.3681,2.6416 -3.8186,2.2573 -1.1494,-0.3045 -2.2813,-0.6438 -3.4007,-0.9828 l -0.2381,-37.692 c -0.006,-1.0208 0.1304,-2.0364 0.2781,-3.0478 z"/>
            <path id="path10"
                  style="fill:#ffffff;fill-rule:evenodd"
                  d="m 535.4351,794.8911 c 0.7101,0.1601 2.1299,0.4801 2.84,0.64 0.33,-5.2398 -0.72,-10.6801 1.0999,-15.73 1.87,-4.07 6.631,-4.3583 10.3901,-6.51 1.0743,-0.6152 1.3923,-1.8689 1.3861,-3.0748 -0.076,-14.7078 -0.1046,-29.4069 -0.0161,-44.1153 0.96,0.0201 2.87,0.0502 3.8301,0.07 0,-1.69 0.01,-3.3797 0.0298,-5.0598 -1.3,0.01 -2.59,0.03 -3.8798,0.0499 -0.0402,-5.7498 -0.0802,-11.4999 0,-17.2401 3.1499,1.5701 5.8598,4.3501 9.47,4.7401 2.6929,-0.2361 5.0783,-1.2336 7.1623,-2.7734 l 14.4402,-10.6687 -0.9725,-1.2379 c -2.5418,1.5168 -5.29,4.0802 -8.68,3.7 -3.7601,-0.01 -6.5001,-2.95 -8.7602,-5.58 -7.4199,4.94 -14.9799,9.6801 -22.42,14.59 -1.91,1.29 -3.9399,2.66 -5.08,4.74 -1.15,3.0901 -0.9998,6.41 -0.9799,9.66 -1.3601,0.0201 -2.71,0.0501 -4.0499,0.0901 0.0198,1.6699 0.0298,3.3401 0.04,5.0301 1.3498,-0.0301 2.7,-0.0301 4.06,-0.0301 z m 44.3401,-94.76 c -2.5101,1.8201 -4.97,3.6902 -7.38,5.6299 -2.6002,2.05 -5.3201,3.96 -7.8401,6.1101 -2.55,2.37 -2.0999,6.1702 -2.2201,9.3299 -1.37,-0.01 -2.73,-0.01 -4.0898,0 0.0198,1.7003 0.0298,3.4101 0.0499,5.1203 1.3501,-0.0202 2.7,-0.0301 4.06,-0.0202 0.12,13.25 -0.1099,26.5099 0.12,39.7602 0.2001,5.6798 4.71,9.6999 9.2701,12.3599 4.8498,-3.49 9.61,-7.1201 14.6098,-10.4 -0.1698,-0.3501 -0.4899,-1.0599 -0.6599,-1.41 -2.3599,1.7099 -6.1901,2.99 -7.5901,-0.5499 0.0601,-13.2302 0.0301,-26.4702 0.0301,-39.7001 1.5199,-0.0501 3.06,-0.0501 4.5901,-0.07 0.0198,-1.66 0.04,-3.3301 0.07,-4.9802 -1.55,-0.0499 -3.1002,-0.0998 -4.64,-0.11 -0.0201,-6.1299 -0.6302,-12.5898 2.45,-18.1698 1.3799,-1.5899 2.8698,-3.0702 4.46,-4.4299 -0.3402,-0.4102 -1.0202,-1.2303 -1.3601,-1.6402 -1.3101,1.05 -2.6101,2.1201 -3.9299,3.17 z m 78.95,15.0001 c -4.5,2.77 -8.1601,6.6699 -12.3302,9.8898 -1.4598,-4.2999 -4.79,-7.5798 -8.7599,-9.6299 l -14.8223,10.6226 0.9822,1.6775 c 1.0715,-0.6772 2.143,-1.3249 3.2014,-2.006 1.5075,-0.9678 3.8271,0.7506 3.8305,2.5259 0.0541,16.1666 -0.1491,32.3334 0.1182,48.49 l 15.2699,-0.0799 0.2727,-48.8925 c 2.0299,-3.5728 6.4548,-3.4149 7.6275,-1.1075 0.5899,13.4399 -0.0102,26.9098 0.2999,40.3599 0.5899,5.3601 5.1001,9.33 9.9201,11.1402 l 14.0976,-10.3813 -0.5877,-1.4587 c -1.8501,1.0298 -4.0399,3.1399 -6.2101,1.8 -1.6098,-0.7302 -1.5698,-2.6201 -1.6699,-4.0902 -0.04,-12.0101 0.0499,-24.0199 -0.01,-36.03 0.3245,-5.6469 -6.2544,-11.4253 -11.23,-12.8299 z m -68.4301,10.5999 c -2.6699,1.2299 -3.3899,4.43 -3.3001,7.1101 0.0502,9.0499 -0.03,18.0899 0.04,27.1401 -0.1698,2.8899 1.0701,5.54 2.1101,8.1598 2.0999,2.66 4.72,4.85 7.6,6.6299 2.4301,1.0701 4.8401,2.2201 7.12,3.5901 5.73,-4.1998 11.5501,-8.28 17.2599,-12.4999 0.0802,-0.47 0.25,-1.4199 0.33,-1.8902 -4.94,2.8202 -11.0299,4.4303 -16.2899,1.3703 -2.8599,-3.2601 -2.3301,-7.6802 -2.2501,-11.6802 4.53,-1.04 9.35,-2.2498 12.7,-5.7101 5.5401,-5.0998 7.1201,-13.3798 5.7501,-20.5497 -0.9901,-5.3802 -4.9399,-9.7702 -9.75,-12.1201 -7.2199,3.24 -14.4,6.6101 -21.32,10.4499 z m 12.67,-1.9199 c 8.17,6.51 8.28,20.5599 0.1701,27.25 -0.5,-9.07 -0.2602,-18.1701 -0.1701,-27.25 z"/>

        </svg>
        <svg id="dagbladed" viewBox="0 0 130 130">
            <rect width="129" height="37" fill="#fff"/>
            <path id="Path_4988"
                  d="M97.686,328.674h63.607c.186,0,.374.015.558,0,.408-.037.552.16.523.542-.01.134,0,.271,0,.406q0,17.933,0,35.867c0,.186,0,.372-.006.558a.334.334,0,0,1-.381.37c-.152,0-.305,0-.457,0H33.859c-.118,0-.237-.01-.355,0-.405.036-.554-.163-.52-.545.008-.084,0-.17,0-.254V329.5c0-.825,0-.825.841-.825ZM37.373,345.632c0,4.163.006,8.327-.009,12.49,0,.475.129.682.63.647s1.015,0,1.523-.009c2.368-.049,4.74.136,7.1-.109a5.737,5.737,0,0,0,4.325-2.242,6,6,0,0,0,1.043-3.6c.015-4.554,0-9.106.01-13.659a12.128,12.128,0,0,0-.119-1.77,4.98,4.98,0,0,0-3.57-4.372,10.417,10.417,0,0,0-3.09-.521c-2.37-.034-4.739-.027-7.109-.035-.725,0-.736.011-.736.739Q37.371,339.413,37.373,345.632Zm39.82-5.365c-.153-.22-.268-.379-.378-.541-1.6-2.351-5.755-2.618-7.132.555a8.027,8.027,0,0,0-.7,3.2c-.011,3.217,0,6.434-.006,9.651a6.888,6.888,0,0,0,.336,2.047,4.132,4.132,0,0,0,4.958,3.055,5.057,5.057,0,0,0,2.362-1.423c.071-.068.131-.184.243-.146s.115.162.114.262a26.97,26.97,0,0,1-.078,3.449.936.936,0,0,1-.774.836,4.494,4.494,0,0,1-.853.117c-.921.025-1.282-.284-1.331-1.2-.023-.41-.176-.514-.555-.508-1.235.017-2.472.006-3.708.006-.889,0-.889,0-.8.9a4.18,4.18,0,0,0,3.456,3.925,12.849,12.849,0,0,0,4.642.175,5.707,5.707,0,0,0,4.1-2.169,5.587,5.587,0,0,0,.969-3.359q.013-7.213,0-14.425c0-1.88-.011-3.759.008-5.639,0-.442-.14-.6-.584-.591-1.185.023-2.371.026-3.556,0-.5-.012-.649.191-.63.66A2.354,2.354,0,0,1,77.193,340.267Zm6.847,5.352v11.223c0,.508.007,1.017,0,1.524,0,.276.112.4.391.4q1.981-.006,3.962,0a.349.349,0,0,0,.4-.4c0-.322,0-.644.01-.965,0-.077.029-.188.083-.221.123-.074.175.062.225.136a4.609,4.609,0,0,0,.74.834,4.124,4.124,0,0,0,6.7-1.274,7.741,7.741,0,0,0,.649-2.956c.029-3.571.025-7.144.009-10.715a6.967,6.967,0,0,0-.525-2.574c-.952-2.368-2.682-2.96-4.938-2.592a3.606,3.606,0,0,0-2.148,1.163c-.094.1-.16.322-.334.246-.156-.067-.083-.273-.083-.417,0-2-.014-4,0-5.993,0-.448-.149-.59-.588-.583-1.286.022-2.573.007-3.86.008-.692,0-.694,0-.694.714Q84.039,339.4,84.04,345.62Zm46.2,11.464.137.023c0,.382.02.764,0,1.144-.026.405.144.531.534.526,1.219-.017,2.438-.023,3.657,0,.46.009.573-.179.573-.6q-.013-12.547,0-25.092c0-.5-.186-.637-.656-.628-1.235.024-2.472.007-3.708.008-.713,0-.717,0-.717.7q0,3.1,0,6.2c0,.129.06.307-.082.371-.166.074-.206-.129-.294-.217-.121-.119-.231-.247-.347-.37a4.024,4.024,0,0,0-6.649,1.33,8.771,8.771,0,0,0-.625,3.067c-.025,3.285-.035,6.57,0,9.854a8.056,8.056,0,0,0,.938,3.962,3.983,3.983,0,0,0,5.154,1.609A5.724,5.724,0,0,0,130.239,357.083Zm-9.982-6.914c-.062-2.212.106-5.039-.08-7.865a4.118,4.118,0,0,0-3.287-4,13.53,13.53,0,0,0-5.594-.189,5.16,5.16,0,0,0-4.7,5.445c0,.453.149.58.587.572q1.981-.035,3.962,0c.417.006.624-.087.624-.552a4.747,4.747,0,0,1,.173-1.1,1.375,1.375,0,0,1,1.36-1.087c.777-.068,1.388.179,1.592.81.5,1.557.471,3.2-1.438,3.834-1.2.4-2.444.69-3.615,1.192a5.168,5.168,0,0,0-3.272,3.973,15.606,15.606,0,0,0-.13,3.947,4.261,4.261,0,0,0,1.527,3.158,5.164,5.164,0,0,0,6.734-.387c.153-.143.284-.441.5-.359s.133.4.116.6c-.046.509.184.632.653.622,1.219-.025,2.438-.026,3.657,0,.481.012.647-.132.643-.629C120.244,355.7,120.256,353.239,120.256,350.169Zm-52.928.349c0-.61.011-1.22,0-1.829-.044-2.183.12-4.369-.09-6.548a4.07,4.07,0,0,0-3.316-3.866,15.5,15.5,0,0,0-4.239-.314,7.91,7.91,0,0,0-2.726.54,4.969,4.969,0,0,0-3.226,5.222c.026.271.125.4.4.4q2.134-.007,4.268,0a.375.375,0,0,0,.438-.375,11.727,11.727,0,0,1,.168-1.2,1.361,1.361,0,0,1,1.357-1.154c.816-.075,1.446.184,1.636.894.46,1.72.385,3.1-1.459,3.741-1.215.426-2.476.7-3.659,1.223A5.118,5.118,0,0,0,53.64,351.3a16.031,16.031,0,0,0-.115,3.744,4.392,4.392,0,0,0,4.586,4.318,4.939,4.939,0,0,0,3.781-1.562c.108-.114.214-.328.4-.243s.078.3.1.464a.564.564,0,0,1,0,.152c-.068.473.145.615.605.605,1.235-.025,2.473-.028,3.708,0,.5.012.634-.159.631-.642C67.317,355.6,67.327,353.059,67.328,350.518Zm69.449-1.644c.063,1.827-.053,3.654.076,5.482a4.759,4.759,0,0,0,3.349,4.454,9.84,9.84,0,0,0,6.237.126,4.852,4.852,0,0,0,3.461-3.348,9.381,9.381,0,0,0,.345-2.5c.014-.379-.141-.505-.508-.5-1.371.013-2.742.016-4.113,0-.407,0-.524.161-.527.544a7.828,7.828,0,0,1-.122,1.311,1.262,1.262,0,0,1-.954,1.126,1.6,1.6,0,0,1-2.09-1.677c-.03-.93-.009-1.862-.009-2.793,0-.848,0-.849.827-.849,2.335,0,4.671-.007,7.007,0,.4,0,.628-.078.623-.555-.02-2.335.014-4.672-.026-7.007a4.214,4.214,0,0,0-2.442-3.872,9.858,9.858,0,0,0-6.5-.66c-2.943.543-4.371,2.27-4.566,5.24C136.731,345.22,136.84,347.047,136.777,348.874Zm15.745.175h0c0,2.065-.017,4.131,0,6.2a3.486,3.486,0,0,0,2.357,3.5,10.311,10.311,0,0,0,4.819.037c.266-.033.306-.223.305-.443,0-.609,0-1.219,0-1.828,0-1.346,0-1.346-1.357-1.356-.665,0-.964-.278-.991-.945-.02-.49-.008-.981-.008-1.472,0-3.317.006-6.635-.008-9.952,0-.417.1-.638.554-.628.439.01.879-.03,1.319-.026.336,0,.5-.119.493-.474q-.016-1.372,0-2.742c0-.362-.173-.467-.5-.466-.456,0-.912-.035-1.369-.034-.369,0-.5-.16-.493-.527.019-.88-.008-1.76.012-2.64.009-.386-.108-.547-.517-.542q-2.056.027-4.112,0c-.41,0-.529.162-.518.545.021.694.017,1.388,0,2.082-.021,1.044.228,1.085-1.048,1.116-.338.008-.5.129-.492.48.011.913.009,1.828,0,2.741,0,.32.133.471.455.459a3.719,3.719,0,0,1,.405.01c.654.044.678.067.679.72Q152.525,345.953,152.522,349.049Zm-48.409-5.464q0-5.2,0-10.409c0-.72,0-.722-.741-.722q-1.828,0-3.656,0c-.728,0-.73,0-.73.732q0,8.91,0,17.822c0,1.1,0,2.2.1,3.3.167,1.854.861,3.376,2.726,4.106a10.087,10.087,0,0,0,3.539.554c.324.006.4-.162.4-.444-.008-.728-.011-1.455,0-2.183,0-.3-.082-.454-.417-.5a1.274,1.274,0,0,1-1.106-1.044,4.122,4.122,0,0,1-.109-1.108Q104.115,348.638,104.113,343.585Z"
                  transform="translate(-32.979 -328.666)" fill="#d12226"/>
            <path id="Path_4989"
                  d="M43.233,345.745q0-4.065,0-8.128c0-.64.018-.665.657-.643a8.606,8.606,0,0,1,1.21.12c1.028.187,1.515.8,1.62,2.03.028.337.02.677.02,1.016q0,4.979,0,9.957c0,.693.051,1.382.011,2.078a2.185,2.185,0,0,1-2.356,2.406c-1.161.077-1.161.077-1.161-1.064Z"
                  transform="translate(-33.172 -328.823)" fill="#d12226"/>
            <path id="Path_4990"
                  d="M77.715,348.472c0,1.284,0,2.569,0,3.854a4.156,4.156,0,0,1-.119,1,1.286,1.286,0,0,1-1.354,1.056,1.248,1.248,0,0,1-1.31-1.1,5.042,5.042,0,0,1-.1-.956c-.007-2.553,0-5.106,0-7.658a4.3,4.3,0,0,1,.2-1.348,1.2,1.2,0,0,1,1.118-.948,1.418,1.418,0,0,1,1.351.9,3.194,3.194,0,0,1,.21,1.191C77.712,345.8,77.715,347.136,77.715,348.472Z"
                  transform="translate(-33.768 -328.925)" fill="#d12226"/>
            <path id="Path_4991"
                  d="M93.231,349.268c-.059,1.283.106,2.944-.085,4.6a2.117,2.117,0,0,1-.343,1,1.2,1.2,0,0,1-2.035-.043,3.9,3.9,0,0,1-.5-2.048c-.018-2.656-.013-5.313,0-7.969a3.532,3.532,0,0,1,.381-1.666,1.24,1.24,0,0,1,1.252-.691,1.132,1.132,0,0,1,1.064.8,4.259,4.259,0,0,1,.267,1.591C93.238,346.189,93.231,347.542,93.231,349.268Z"
                  transform="translate(-34.058 -328.926)" fill="#d12226"/>
            <path id="Path_4992"
                  d="M128.986,348.916q0-2.156,0-4.312a3.567,3.567,0,0,1,.3-1.48,1.191,1.191,0,0,1,1.171-.739,1.076,1.076,0,0,1,1,.735,5.631,5.631,0,0,1,.394,2.283c.024,2.419.016,4.836,0,7.255a6.34,6.34,0,0,1-.2,1.656,1.285,1.285,0,0,1-1.284,1.084,1.241,1.241,0,0,1-1.233-1.069,3.9,3.9,0,0,1-.15-1.1C128.989,351.79,128.986,350.353,128.986,348.916Z"
                  transform="translate(-34.788 -328.925)" fill="#d12226"/>
            <path id="Path_4993"
                  d="M116.634,351.807a14.935,14.935,0,0,1-.1,2.445c-.242,1.285-1.091,1.92-2.2,1.63a1.636,1.636,0,0,1-1.261-1.589,13.387,13.387,0,0,1,0-1.672,2.709,2.709,0,0,1,1.664-2.31c.5-.252,1.01-.472,1.509-.72.3-.149.4-.047.4.257C116.63,350.457,116.634,351.065,116.634,351.807Z"
                  transform="translate(-34.487 -329.059)" fill="#d12226"/>
            <path id="Path_4994"
                  d="M62.686,351.966a9.46,9.46,0,0,1-.2,2.735,1.641,1.641,0,0,1-2.24,1.129,1.5,1.5,0,0,1-1.045-1.2,6.165,6.165,0,0,1,.051-2.57,2.441,2.441,0,0,1,1.276-1.572c.572-.327,1.18-.592,1.768-.891.289-.147.4-.061.394.253C62.681,350.508,62.686,351.168,62.686,351.966Z"
                  transform="translate(-33.471 -329.059)" fill="#d12226"/>
            <path id="Path_4995"
                  d="M147.387,344.986c0,.541,0,1.081,0,1.622,0,.312-.12.464-.45.459-.828-.011-1.656-.006-2.483,0-.254,0-.439-.074-.434-.365a24.915,24.915,0,0,1,.077-3.591,1.518,1.518,0,0,1,1.845-1.487,1.67,1.67,0,0,1,1.439,1.743C147.405,343.9,147.387,344.446,147.387,344.986Z"
                  transform="translate(-35.071 -328.91)" fill="#d12226"/>
        </svg>
    </defs>
    <use xlink:href="#vg" x="0" y="0"/>
    <use xlink:href="#e_24" x="0" y="300"/>
    <use xlink:href="#aftenposten" x="690" y="-50"/>
    <use xlink:href="#dagbladed" x="0" y="650"/>
</svg>
