<?xml version="1.0" encoding="utf-8"?>
<!-- Generator: Adobe Illustrator 23.0.3, SVG Export Plug-In . SVG Version: 6.00 Build 0)  -->
<svg version="1.1" id="Layer_1" xmlns="http://www.w3.org/2000/svg" xmlns:xlink="http://www.w3.org/1999/xlink" x="0px" y="0px"
	 viewBox="0 0 269.55 121.89" style="enable-background:new 0 0 269.55 121.89;" xml:space="preserve">
<style type="text/css">
	.st0{fill:#FFFFFF;}
</style>
<g>
	<g>
		<path class="st0" d="M57.44,39.68c0-0.52,0.47-0.99,0.99-0.99h3.43c0.52,0,0.99,0.47,0.99,0.99V74.1c0,0.52-0.47,0.99-0.99,0.99
			h-3.43c-0.52,0-0.99-0.47-0.99-0.99V39.68z"/>
		<path class="st0" d="M76.72,39.11c0-0.52,0.47-0.94,0.99-0.94h0.42c0.52,0,0.88,0,1.56,0.78l21.84,25.32h0.1V39.68
			c0-0.52,0.42-0.99,0.99-0.99h3.33c0.52,0,0.99,0.47,0.99,0.99v34.99c0,0.52-0.47,0.94-0.99,0.94h-0.47c-0.52,0-0.88,0-1.51-0.73
			l-21.89-26.1h-0.1V74.1c0,0.52-0.42,0.99-0.99,0.99h-3.28c-0.52,0-0.99-0.47-0.99-0.99V39.11z"/>
		<path class="st0" d="M126.38,43.58h-8.47c-0.57,0-0.99-0.47-0.99-0.99v-2.91c0-0.52,0.42-0.99,0.99-0.99h22.36
			c0.57,0,0.99,0.47,0.99,0.99v2.91c0,0.52-0.42,0.99-0.99,0.99h-8.47V74.1c0,0.52-0.47,0.99-0.99,0.99h-3.43
			c-0.52,0-0.99-0.47-0.99-0.99V43.58z"/>
		<path class="st0" d="M151.24,39.68c0-0.52,0.42-0.99,0.99-0.99h14.14c6.24,0,11.33,4.94,11.33,11.13c0,4.78-3.17,8.73-7.69,10.56
			l7.12,13.21c0.36,0.67,0,1.51-0.88,1.51h-3.9c-0.57,0-0.88-0.26-1.09-0.67l-6.81-13.57h-7.85V74.1c0,0.52-0.47,0.99-0.99,0.99
			h-3.38c-0.57,0-0.99-0.47-0.99-0.99V39.68z M165.96,56.37c3.38,0,6.34-2.86,6.34-6.45c0-3.38-2.96-6.19-6.34-6.19h-9.25v12.63
			H165.96z"/>
		<path class="st0" d="M184.73,73.74l15.96-34.99c0.16-0.31,0.62-0.57,0.88-0.57h0.52c0.26,0,0.73,0.26,0.88,0.57l15.86,34.99
			c0.31,0.68-0.1,1.35-0.88,1.35h-3.28c-0.62,0-0.99-0.31-1.2-0.78l-3.22-7.12h-17l-3.17,7.12c-0.16,0.36-0.57,0.78-1.2,0.78h-3.28
			C184.84,75.09,184.42,74.41,184.73,73.74z M208.28,62.71l-6.4-14.25h-0.26l-6.34,14.25H208.28z"/>
	</g>
	<circle class="st0" cx="60.14" cy="84.74" r="3.07"/>
</g>
</svg>
