<svg class="fatman" width="26" height="34" viewBox="0 0 26 34" version="1.1" xmlns="http://www.w3.org/2000/svg" xmlns:xlink="http://www.w3.org/1999/xlink" xmlns:figma="http://www.figma.com/figma/ns">
<title>man</title>
<desc>Created using Figma</desc>
<g id="Canvas" transform="translate(-133 -38)" figma:type="canvas">
<g id="man" style="mix-blend-mode:normal;" figma:type="frame">
<g id="Vector" style="mix-blend-mode:normal;" figma:type="vector">
<use xlink:href="#path0_fill" transform="translate(133.538 38)" fill="#333333" style="mix-blend-mode:normal;"/>
<use xlink:href="#path1_fill" transform="translate(133.538 38)" fill="#333333" style="mix-blend-mode:normal;"/>
</g>
</g>
</g>
<defs>
<path id="path0_fill" d="M 16.7568 4.32203C 16.7568 6.70903 14.8071 8.64407 12.4019 8.64407C 9.99684 8.64407 8.04711 6.70903 8.04711 4.32203C 8.04711 1.93504 9.99684 0 12.4019 0C 14.8071 0 16.7568 1.93504 16.7568 4.32203Z"/>
<path id="path1_fill" d="M 15.6034 9.22034L 12.6923 9.22034L 9.28311 9.22034C 8.49139 9.22034 7.73177 8.90737 7.16983 8.34966L 3.69797 4.90395C 2.88045 4.09259 1.57141 4.06146 0.716233 4.83303C -0.19585 5.65595 -0.243404 7.07129 0.611387 7.95357L 5.4598 12.9579C 6.002 13.5176 6.30518 14.2662 6.30518 15.0454L 6.30518 31.3871C 6.30518 32.8302 7.47501 34 8.91808 34C 10.3611 34 11.531 32.8302 11.531 31.3871L 11.531 25.5077C 11.531 24.9465 11.9859 24.4915 12.5471 24.4915C 13.1083 24.4915 13.5632 24.9465 13.5632 25.5077L 13.5632 31.5323C 13.5632 32.8952 14.6681 34 16.031 34C 17.3939 34 18.4987 32.8952 18.4987 31.5323L 18.4987 15.0798C 18.4987 14.2802 18.8179 13.5137 19.3854 12.9505L 24.55 7.82482C 25.375 7.00604 25.375 5.67193 24.55 4.85314C 23.7612 4.07029 22.4981 4.04024 21.673 4.78471L 17.6131 8.44774C 17.0619 8.94506 16.3459 9.22034 15.6034 9.22034Z"/>
</defs>
</svg>