<?xml version="1.0" encoding="utf-8"?>
<!-- Generator: Adobe Illustrator 24.0.1, SVG Export Plug-In . SVG Version: 6.00 Build 0)  -->
<svg version="1.1" id="Layer_1" xmlns="http://www.w3.org/2000/svg" xmlns:xlink="http://www.w3.org/1999/xlink" x="0px" y="0px"
	 viewBox="0 0 562.55 261.07" style="enable-background:new 0 0 562.55 261.07;" xml:space="preserve">
<style type="text/css">
	.st0{fill:#000000;}
</style>
<g>
	<g>
		<path class="st0" d="M111.79,182.92c-8.75,8.57-17.5,13.47-30.1,13.47c-16.45,0-34.83-11.02-34.83-31.32
			c0-17.15,12.6-29.4,27.65-40.95c-8.58-13.47-11.9-19.95-11.9-29.22c0-12.25,10.67-20.65,23.8-20.65c11.9,0,21.35,8.93,21.35,21
			c0,8.23-4.2,14.35-21,29.57l26.95,42.52c3.67-6.13,8.4-18.2,8.4-23.1c0-2.97-1.57-4.38-5.42-5.78l-6.47-2.1
			c-2.28-0.7-2.8-1.57-2.8-2.45c0-1.23,1.05-2.1,2.97-2.1h17.91c2.28,0,1.87,7.88,1.52,8.93c-1.23,4.02-3.32,20.65-11.72,33.6
			l7.35,11.55c1.22,1.75,2.1,2.1,3.32,2.45c0,0,1.46,6.65-0.47,6.65h-8.46L111.79,182.92z M78.89,131.12
			c-15.22,12.08-22.22,22.23-22.22,32.9c0,15.22,13.83,23.62,26.25,23.62c9.45,0,18.2-4.55,24.68-11.2L78.89,131.12z M82.39,118.35
			c12.77-11.72,16.63-16.27,16.63-23.97c0-9.98-7-13.48-13.13-13.48c-8.05,0-13.47,6.83-13.47,14.53
			C72.41,101.37,74.16,105.57,82.39,118.35z"/>
	</g>
	<rect x="125.36" y="30.79" class="st0" width="5.86" height="200.11"/>
	<g>
		<path class="st0" d="M163.2,106.67c0-0.58-0.33-1.41-1.32-1.74l-3.31-0.99c-1.24-0.33-1.57-0.66-1.57-1.32
			c0-0.83,0.58-1.33,1.82-1.33h18.72c13.34,0,15.91,10.94,15.91,15.74c0,9.2-7.29,16.9-17.89,16.9h-6.71v20.96
			c0,0.58,0.33,1.41,1.33,1.74l3.31,0.99c1.24,0.33,1.57,0.66,1.57,1.32c0,0.83-0.58,1.33-1.82,1.33h-14.42
			c-1.24,0-1.82-0.5-1.82-1.33c0-0.66,0.33-0.99,1.57-1.32l3.31-0.99c0.99-0.33,1.32-1.16,1.32-1.74V106.67z M168.83,130.28h6.21
			c9.11,0,12.26-5.38,12.26-12.34c0-10.44-6.46-13.01-11.1-13.01h-7.37V130.28z"/>
		<path class="st0" d="M216.49,101.28h2.4l19.05,54.26c0.25,0.66,0.66,0.91,2.4,1.57l2.57,0.99c0.5,0.17,0.83,0.33,0.83,1.16
			c0,0.58-0.5,0.99-1.16,0.99h-14.25c-0.83,0-1.41-0.41-1.41-1.24c0-0.41,0.17-0.83,0.5-0.91l2.82-0.99
			c1.41-0.5,1.57-0.66,1.57-1.24c0-0.58-0.17-1.16-0.5-2.07l-4.14-11.93h-20.71l-3.31,9.11c-0.66,1.9-1.08,3.31-1.08,4.22
			c0,0.91,0.33,1.41,1.57,1.9l2.49,0.99c0.5,0.25,0.66,0.66,0.66,0.91c0,0.83-0.5,1.24-1.9,1.24h-12.51c-0.66,0-1.41-0.33-1.41-1.41
			c0-0.25,0.25-0.66,0.5-0.75l3.4-0.99c1.32-0.41,2.24-1.32,2.57-2.32L216.49,101.28z M207.87,137.73h17.89l-8.7-26.18h-0.17
			L207.87,137.73z"/>
		<path class="st0" d="M252.37,106.67c0-0.58-0.33-1.41-1.32-1.74l-3.31-0.99c-1.24-0.33-1.57-0.66-1.57-1.32
			c0-0.83,0.58-1.33,1.82-1.33h18.72c13.34,0,15.91,10.94,15.91,15.74c0,7.13-4.39,13.34-11.93,16.24l11.52,22.2
			c0.41,0.75,0.91,0.99,1.57,1.16l4.72,1.49c0.83,0.25,0.83,0.5,0.83,1.16c0,0.58-0.5,0.99-1.08,0.99h-9.78l-13.83-26.34h-6.63
			v20.96c0,0.58,0.33,1.41,1.33,1.74l3.31,0.99c1.24,0.33,1.57,0.66,1.57,1.32c0,0.83-0.58,1.33-1.82,1.33h-14.42
			c-1.24,0-1.82-0.5-1.82-1.33c0-0.66,0.33-0.99,1.57-1.32l3.31-0.99c0.99-0.33,1.32-1.16,1.32-1.74V106.67z M258.01,130.28h6.21
			c8.12,0,12.26-4.31,12.26-12.34c0-10.44-6.46-13.01-11.1-13.01h-7.37V130.28z"/>
		<path class="st0" d="M307.49,104.93h-11.1c-0.91,0-1.41,0.33-1.82,1.08l-2.48,4.47c-0.66,1.32-1.08,1.41-1.82,1.41
			c-0.83,0-1.33-0.91-1.33-1.49c0-0.41,0.17-1.33,0.25-1.82l1.24-7.29h39.76l1.24,7.29c0.08,0.5,0.25,1.41,0.25,1.82
			c0,0.58-0.5,1.49-1.32,1.49c-0.75,0-1.16-0.08-1.82-1.41l-2.49-4.47c-0.41-0.74-0.91-1.08-1.82-1.08h-11.1v49.95
			c0,0.58,0.33,1.41,1.33,1.74l3.31,0.99c1.24,0.33,1.57,0.66,1.57,1.32c0,0.83-0.58,1.33-1.82,1.33H303.1
			c-1.24,0-1.82-0.5-1.82-1.33c0-0.66,0.33-0.99,1.57-1.32l3.31-0.99c0.99-0.33,1.32-1.16,1.32-1.74V104.93z"/>
		<path class="st0" d="M341.97,106.42c0-0.74-0.33-1.16-1.24-1.49l-2.73-0.99c-1.49-0.58-1.82-0.83-1.82-1.41
			c0-0.66,0.33-1.24,1.32-1.24h8.28l32.97,47.3h0.17v-41.17c0-1.33-0.17-2.07-1.58-2.49l-3.15-0.99c-1.33-0.41-1.49-0.66-1.49-1.24
			c0-1.08,0.5-1.41,1.74-1.41h13.09c1.24,0,1.74,0.33,1.74,1.41c0,0.58-0.17,0.83-1.49,1.24l-3.15,0.99
			c-1.41,0.41-1.58,1.16-1.58,2.49v52.85h-2.32l-34.46-49.04h-0.17v42.91c0,1.74,0.5,2.16,1.58,2.49l3.15,0.99
			c1.33,0.41,1.49,0.66,1.49,1.24c0,1.08-0.5,1.41-1.74,1.41H337.5c-1.24,0-1.74-0.33-1.74-1.41c0-0.58,0.17-0.83,1.49-1.24
			l3.15-0.99c1.08-0.33,1.57-0.74,1.57-2.49V106.42z"/>
		<path class="st0" d="M401.39,106.67c0-0.58-0.33-1.41-1.32-1.74l-3.31-0.99c-1.24-0.33-1.57-0.66-1.57-1.32
			c0-0.83,0.58-1.33,1.82-1.33h32.89l0.58,7.29c0,0.33,0.08,0.91,0.08,1.24c0,1.16-0.33,1.74-1.16,1.74c-0.25,0-0.99-0.5-1.49-1.66
			l-1.16-2.98c-0.5-1.24-1.08-1.99-2.49-1.99h-17.23v23.69h15.99c1.57,0,1.82-1.08,2.07-2.4l0.5-2.32c0.25-1.08,0.75-1.49,1.33-1.49
			c0.66,0,1.08,0.66,1.08,1.16v13.75c0,0.5-0.41,1.16-1.08,1.16c-0.58,0-1.08-0.41-1.33-1.49l-0.5-2.32c-0.25-1.33-0.5-2.4-2.07-2.4
			h-15.99v22.2c0,1.41,0.58,2.15,1.99,2.15h15.16c1.32,0,1.66-0.66,2.32-1.66l3.31-5.38c0.74-1.16,1.57-1.24,1.82-1.24
			c0.99,0,1.24,0.91,1.24,1.41c0,0.41-0.25,1.32-0.58,2.73l-1.91,7.79H397c-1.24,0-1.82-0.5-1.82-1.33c0-0.66,0.33-0.99,1.57-1.32
			l3.31-0.99c0.99-0.33,1.32-1.16,1.32-1.74V106.67z"/>
		<path class="st0" d="M445.89,106.67c0-0.58-0.33-1.41-1.32-1.74l-3.31-0.99c-1.24-0.33-1.57-0.66-1.57-1.32
			c0-0.83,0.58-1.33,1.82-1.33h18.72c13.34,0,15.91,10.94,15.91,15.74c0,7.13-4.39,13.34-11.93,16.24l11.52,22.2
			c0.41,0.75,0.91,0.99,1.58,1.16l4.72,1.49c0.83,0.25,0.83,0.5,0.83,1.16c0,0.58-0.5,0.99-1.08,0.99h-9.77l-13.83-26.34h-6.63
			v20.96c0,0.58,0.33,1.41,1.33,1.74l3.31,0.99c1.24,0.33,1.57,0.66,1.57,1.32c0,0.83-0.58,1.33-1.82,1.33H441.5
			c-1.24,0-1.82-0.5-1.82-1.33c0-0.66,0.33-0.99,1.57-1.32l3.31-0.99c0.99-0.33,1.32-1.16,1.32-1.74V106.67z M451.53,130.28h6.21
			c8.12,0,12.26-4.31,12.26-12.34c0-10.44-6.46-13.01-11.1-13.01h-7.37V130.28z"/>
		<path class="st0" d="M485.51,150.83c-0.25-1.66-0.5-2.57-0.5-3.31c0-0.83,0.66-1.57,1.66-1.57c0.66,0,1.24,0.66,1.66,1.57
			l3.4,7.12c1.24,2.4,4.81,2.98,7.21,2.98c11.76,0,13.92-9.2,13.92-11.76c0-14.25-26.51-13.09-26.51-30.15
			c0-9.53,6.46-15.41,18.39-15.41c4.89,0,9.61,1.66,10.6,2.15l0.41,6.63c0.08,0.66,0.17,1.49,0.17,2.57c0,1.16-0.99,1.74-1.57,1.74
			c-0.91,0-1.24-0.33-1.58-1.24l-1.74-4.89c-0.41-1.33-1.9-3.31-7.62-3.31c-4.97,0-11.43,2.82-11.43,9.94
			c0,13.92,26.01,13.25,26.01,30.07c0,5.63-4.06,17.32-19.8,17.32c-3.89,0-7.79-0.58-11.27-2.24L485.51,150.83z"/>
	</g>
</g>
</svg>
