<?xml version="1.0" encoding="utf-8"?>
<!-- Generator: Adobe Illustrator 23.0.1, SVG Export Plug-In . SVG Version: 6.00 Build 0)  -->
<svg version="1.1" id="Layer_1" xmlns="http://www.w3.org/2000/svg" xmlns:xlink="http://www.w3.org/1999/xlink" x="0px" y="0px"
	 viewBox="0 0 1190.55 841.89" style="enable-background:new 0 0 1190.55 841.89;" xml:space="preserve">
<style type="text/css">
	.st0{fill:#FFFFFF;}
</style>
<g>
	<path class="st0" d="M422.63,465.14c3.36-5.19,5.72-10.95,7.43-16.28v-26.61h-15.19c-1.94,0-3,0.88-3,2.12
		c0,0.88,0.53,1.77,2.83,2.47l6.53,2.12c3.88,1.41,5.47,2.82,5.47,5.83c0,4.94-4.77,17.12-8.47,23.3l-27.18-42.89
		c16.95-15.36,21.18-21.53,21.18-29.83c0-12.18-9.53-21.18-21.53-21.18c-13.24,0-24.01,8.47-24.01,20.83c0,9.35,3.35,15.89,12,29.48
		c-15.18,11.65-27.89,24.01-27.89,41.31c0,20.48,18.53,31.6,35.13,31.6c12.71,0,21.53-4.94,30.36-13.59l8.12,12.18h5.66v-9.16
		c0-0.01-0.01-0.01-0.01-0.02L422.63,465.14z M376.56,385.53c0-7.77,5.47-14.65,13.59-14.65c6.18,0,13.24,3.53,13.24,13.59
		c0,7.77-3.88,12.36-16.77,24.18C378.33,395.77,376.56,391.53,376.56,385.53z M387.15,478.55c-12.53,0-26.48-8.47-26.48-23.83
		c0-10.77,7.06-21.01,22.42-33.19l28.95,45.72C405.51,473.96,396.69,478.55,387.15,478.55z"/>
</g>
<g>
	<path class="st0" d="M488.72,365.87c-1.96-3.39-4.31-5.35-8.48-5.35c-4.37,0-8.16,3.13-8.16,7.63c0,4.24,4.37,6.2,7.7,7.7
		l3.26,1.44c6.39,2.81,11.81,6,11.81,13.83c0,8.61-6.92,15.2-15.46,15.2c-7.9,0-13.77-5.09-15.33-12.72l5.35-1.5
		c0.72,5.02,4.57,9.13,9.85,9.13c5.28,0,10.11-4.04,10.11-9.59c0-5.74-4.5-7.7-9.07-9.79l-3-1.31c-5.74-2.61-10.7-5.55-10.7-12.59
		c0-7.63,6.46-12.53,13.77-12.53c5.48,0,10.11,2.81,12.72,7.63L488.72,365.87z"/>
	<path class="st0" d="M542.35,367.04c-3.92-4.05-9.33-6.52-15.01-6.52c-10.96,0-19.83,9.53-19.83,20.36
		c0,10.83,8.94,20.36,19.97,20.36c5.55,0,10.96-2.61,14.88-6.52v6.79c-4.24,3.07-9.46,4.83-14.68,4.83
		c-13.9,0-25.64-11.29-25.64-25.25c0-14.09,11.55-25.64,25.64-25.64c5.48,0,10.31,1.57,14.68,4.83V367.04z"/>
	<path class="st0" d="M584.5,376.24v-19.97h5.48v49.2h-5.48v-24.14h-25.19v24.14h-5.48v-49.2h5.48v19.97H584.5z"/>
	<path class="st0" d="M609.48,391.51l-5.94,13.96h-6l22.71-51.54l22.12,51.54h-6.07l-5.81-13.96H609.48z M620.12,366.72l-8.42,19.7
		h16.64L620.12,366.72z"/>
	<path class="st0" d="M655.15,400.38h13.57v5.09h-19.05v-49.2h5.48V400.38z"/>
	<path class="st0" d="M683.47,391.51l-5.94,13.96h-6l22.71-51.54l22.12,51.54h-6.07l-5.81-13.96H683.47z M694.1,366.72l-8.42,19.7
		h16.64L694.1,366.72z"/>
</g>
<g>
	<path class="st0" d="M467.06,434.97c0-0.58-0.33-1.42-1.34-1.76l-3.34-1c-1.25-0.33-1.59-0.67-1.59-1.34
		c0-0.84,0.58-1.34,1.84-1.34h18.89c13.46,0,16.05,11.03,16.05,15.88c0,9.28-7.36,17.05-18.05,17.05h-6.77v21.15
		c0,0.59,0.33,1.42,1.34,1.76l3.34,1c1.25,0.33,1.59,0.67,1.59,1.34c0,0.84-0.59,1.34-1.84,1.34h-14.54c-1.25,0-1.84-0.5-1.84-1.34
		c0-0.67,0.33-1,1.59-1.34l3.34-1c1-0.33,1.34-1.17,1.34-1.76V434.97z M472.74,458.8h6.27c9.19,0,12.37-5.43,12.37-12.45
		c0-10.53-6.52-13.12-11.2-13.12h-7.44V458.8z"/>
	<path class="st0" d="M520.81,429.54h2.42l19.23,54.75c0.25,0.67,0.67,0.92,2.42,1.59l2.59,1c0.5,0.17,0.84,0.33,0.84,1.17
		c0,0.58-0.5,1-1.17,1h-14.38c-0.84,0-1.42-0.42-1.42-1.25c0-0.42,0.17-0.84,0.5-0.92l2.84-1c1.42-0.5,1.59-0.67,1.59-1.25
		c0-0.59-0.17-1.17-0.5-2.09l-4.18-12.04h-20.9l-3.34,9.2c-0.67,1.92-1.09,3.34-1.09,4.26c0,0.92,0.33,1.42,1.59,1.92l2.51,1
		c0.5,0.25,0.67,0.67,0.67,0.92c0,0.84-0.5,1.25-1.92,1.25h-12.62c-0.67,0-1.42-0.33-1.42-1.42c0-0.25,0.25-0.67,0.5-0.75l3.43-1
		c1.34-0.42,2.26-1.34,2.59-2.34L520.81,429.54z M512.12,466.32h18.05l-8.78-26.41h-0.17L512.12,466.32z"/>
	<path class="st0" d="M557.01,434.97c0-0.58-0.33-1.42-1.34-1.76l-3.34-1c-1.25-0.33-1.59-0.67-1.59-1.34
		c0-0.84,0.58-1.34,1.84-1.34h18.89c13.46,0,16.05,11.03,16.05,15.88c0,7.19-4.43,13.46-12.04,16.38l11.62,22.4
		c0.42,0.75,0.92,1,1.59,1.17l4.76,1.5c0.84,0.25,0.84,0.5,0.84,1.17c0,0.58-0.5,1-1.09,1h-9.86l-13.96-26.58h-6.69v21.15
		c0,0.59,0.33,1.42,1.34,1.76l3.34,1c1.25,0.33,1.59,0.67,1.59,1.34c0,0.84-0.59,1.34-1.84,1.34h-14.54c-1.25,0-1.84-0.5-1.84-1.34
		c0-0.67,0.33-1,1.59-1.34l3.34-1c1-0.33,1.34-1.17,1.34-1.76V434.97z M562.69,458.8h6.27c8.19,0,12.37-4.35,12.37-12.45
		c0-10.53-6.52-13.12-11.2-13.12h-7.44V458.8z"/>
	<path class="st0" d="M612.61,433.22h-11.2c-0.92,0-1.42,0.33-1.84,1.09l-2.51,4.51c-0.67,1.34-1.09,1.42-1.84,1.42
		c-0.84,0-1.34-0.92-1.34-1.5c0-0.42,0.17-1.34,0.25-1.84l1.25-7.36h40.12l1.25,7.36c0.08,0.5,0.25,1.42,0.25,1.84
		c0,0.58-0.5,1.5-1.34,1.5c-0.75,0-1.17-0.08-1.84-1.42l-2.51-4.51c-0.42-0.75-0.92-1.09-1.84-1.09h-11.2v50.4
		c0,0.59,0.33,1.42,1.34,1.76l3.34,1c1.25,0.33,1.59,0.67,1.59,1.34c0,0.84-0.58,1.34-1.84,1.34h-14.54c-1.25,0-1.84-0.5-1.84-1.34
		c0-0.67,0.33-1,1.59-1.34l3.34-1c1-0.33,1.34-1.17,1.34-1.76V433.22z"/>
	<path class="st0" d="M647.38,434.72c0-0.75-0.33-1.17-1.25-1.5l-2.76-1c-1.5-0.58-1.84-0.84-1.84-1.42c0-0.67,0.33-1.25,1.34-1.25
		h8.36l33.27,47.73h0.17v-41.54c0-1.34-0.17-2.09-1.59-2.51l-3.18-1c-1.34-0.42-1.5-0.67-1.5-1.25c0-1.09,0.5-1.42,1.75-1.42h13.21
		c1.25,0,1.76,0.33,1.76,1.42c0,0.59-0.17,0.84-1.5,1.25l-3.18,1c-1.42,0.42-1.59,1.17-1.59,2.51v53.33h-2.34l-34.77-49.48h-0.17
		v43.3c0,1.76,0.5,2.17,1.59,2.51l3.18,1c1.34,0.42,1.5,0.67,1.5,1.25c0,1.09-0.5,1.42-1.75,1.42h-13.21
		c-1.25,0-1.76-0.33-1.76-1.42c0-0.58,0.17-0.84,1.5-1.25l3.18-1c1.09-0.33,1.59-0.75,1.59-2.51V434.72z"/>
	<path class="st0" d="M707.32,434.97c0-0.58-0.33-1.42-1.34-1.76l-3.34-1c-1.25-0.33-1.59-0.67-1.59-1.34
		c0-0.84,0.58-1.34,1.84-1.34h33.18l0.58,7.36c0,0.33,0.08,0.92,0.08,1.25c0,1.17-0.33,1.76-1.17,1.76c-0.25,0-1-0.5-1.5-1.67
		l-1.17-3.01c-0.5-1.25-1.09-2.01-2.51-2.01H713v23.91h16.13c1.59,0,1.84-1.09,2.09-2.42l0.5-2.34c0.25-1.09,0.75-1.5,1.34-1.5
		c0.67,0,1.09,0.67,1.09,1.17v13.88c0,0.5-0.42,1.17-1.09,1.17c-0.58,0-1.09-0.42-1.34-1.5l-0.5-2.34c-0.25-1.34-0.5-2.42-2.09-2.42
		H713v22.4c0,1.42,0.58,2.17,2.01,2.17h15.3c1.34,0,1.67-0.67,2.34-1.67l3.34-5.43c0.75-1.17,1.59-1.25,1.84-1.25
		c1,0,1.25,0.92,1.25,1.42c0,0.42-0.25,1.34-0.58,2.76l-1.92,7.86h-33.69c-1.25,0-1.84-0.5-1.84-1.34c0-0.67,0.33-1,1.59-1.34
		l3.34-1c1-0.33,1.34-1.17,1.34-1.76V434.97z"/>
	<path class="st0" d="M752.21,434.97c0-0.58-0.33-1.42-1.34-1.76l-3.34-1c-1.25-0.33-1.59-0.67-1.59-1.34
		c0-0.84,0.58-1.34,1.84-1.34h18.89c13.46,0,16.05,11.03,16.05,15.88c0,7.19-4.43,13.46-12.04,16.38l11.62,22.4
		c0.42,0.75,0.92,1,1.59,1.17l4.76,1.5c0.84,0.25,0.84,0.5,0.84,1.17c0,0.58-0.5,1-1.09,1h-9.86l-13.96-26.58h-6.69v21.15
		c0,0.59,0.33,1.42,1.34,1.76l3.34,1c1.25,0.33,1.59,0.67,1.59,1.34c0,0.84-0.58,1.34-1.84,1.34h-14.54c-1.25,0-1.84-0.5-1.84-1.34
		c0-0.67,0.33-1,1.59-1.34l3.34-1c1-0.33,1.34-1.17,1.34-1.76V434.97z M757.89,458.8h6.27c8.19,0,12.37-4.35,12.37-12.45
		c0-10.53-6.52-13.12-11.2-13.12h-7.44V458.8z"/>
	<path class="st0" d="M792.16,479.53c-0.25-1.67-0.5-2.59-0.5-3.34c0-0.84,0.67-1.59,1.67-1.59c0.67,0,1.25,0.67,1.67,1.59
		l3.43,7.19c1.25,2.42,4.85,3.01,7.27,3.01c11.87,0,14.04-9.28,14.04-11.87c0-14.38-26.75-13.21-26.75-30.43
		c0-9.61,6.52-15.55,18.56-15.55c4.93,0,9.7,1.67,10.7,2.17l0.42,6.69c0.08,0.67,0.17,1.5,0.17,2.59c0,1.17-1,1.76-1.59,1.76
		c-0.92,0-1.25-0.33-1.59-1.25l-1.75-4.93c-0.42-1.34-1.92-3.34-7.69-3.34c-5.01,0-11.54,2.84-11.54,10.03
		c0,14.04,26.25,13.37,26.25,30.34c0,5.68-4.1,17.47-19.98,17.47c-3.93,0-7.86-0.58-11.37-2.26L792.16,479.53z"/>
</g>
</svg>
